<svg width="61" height="60" viewBox="0 0 61 60" fill="none" xmlns="http://www.w3.org/2000/svg">
<rect x="60.3438" width="60" height="60" rx="30" transform="rotate(90 60.3438 0)" fill="white"/>
<path opacity="0.3" d="M38.4423 29.0343L24.016 14.8684C23.7753 14.6319 23.4555 14.5 23.123 14.5C22.7904 14.5 22.4706 14.6319 22.2299 14.8684L22.2144 14.8844C22.0973 14.9991 22.004 15.137 21.9403 15.29C21.8766 15.443 21.8438 15.6077 21.8438 15.7741C21.8438 15.9406 21.8766 16.1053 21.9403 16.2582C22.004 16.4112 22.0973 16.5492 22.2144 16.6638L35.7993 30.0027L22.2144 43.3362C22.0973 43.4508 22.004 43.5888 21.9403 43.7418C21.8766 43.8947 21.8438 44.0594 21.8438 44.2259C21.8438 44.3923 21.8766 44.557 21.9403 44.71C22.004 44.8629 22.0973 45.0009 22.2144 45.1156L22.2299 45.1316C22.4706 45.3681 22.7904 45.5 23.123 45.5C23.4555 45.5 23.7753 45.3681 24.016 45.1316L38.4423 30.9657C38.5691 30.8412 38.6701 30.6913 38.7391 30.5253C38.8082 30.3593 38.8437 30.1806 38.8437 30C38.8437 29.8194 38.8082 29.6407 38.7391 29.4747C38.6701 29.3087 38.5691 29.1588 38.4423 29.0343Z" fill="#1D1D1F"/>
</svg>
