<svg width="60" height="60" viewBox="0 0 60 60" fill="none" xmlns="http://www.w3.org/2000/svg">
<rect y="60" width="60" height="60" rx="30" transform="rotate(-90 0 60)" fill="white"/>
<path opacity="0.3" d="M21.9015 30.9657L36.3277 45.1316C36.5684 45.3681 36.8882 45.5 37.2208 45.5C37.5533 45.5 37.8731 45.3681 38.1138 45.1316L38.1294 45.1156C38.2465 45.0009 38.3397 44.8629 38.4034 44.71C38.4671 44.557 38.5 44.3923 38.5 44.2259C38.5 44.0594 38.4671 43.8947 38.4034 43.7418C38.3397 43.5888 38.2465 43.4508 38.1294 43.3362L24.5444 29.9973L38.1294 16.6638C38.2465 16.5492 38.3397 16.4112 38.4034 16.2582C38.4671 16.1053 38.5 15.9406 38.5 15.7741C38.5 15.6077 38.4671 15.443 38.4034 15.29C38.3397 15.1371 38.2465 14.9991 38.1294 14.8844L38.1138 14.8684C37.8731 14.6319 37.5533 14.5 37.2208 14.5C36.8882 14.5 36.5684 14.6319 36.3277 14.8684L21.9015 29.0343C21.7746 29.1588 21.6736 29.3087 21.6046 29.4747C21.5356 29.6407 21.5 29.8194 21.5 30C21.5 30.1806 21.5356 30.3593 21.6046 30.5253C21.6736 30.6913 21.7746 30.8412 21.9015 30.9657Z" fill="#1D1D1F"/>
</svg>
