<svg width="52" height="57" viewBox="0 0 52 57" fill="none" xmlns="http://www.w3.org/2000/svg">
<path d="M0 10.0872C0 4.51619 4.5162 0 10.0872 0C10.7062 0 11.208 0.5018 11.208 1.1208V20.5133C11.208 21.1323 10.7062 21.6341 10.0872 21.6341C4.5162 21.6341 0 17.1179 0 11.5469V10.0872Z" fill="#203A72"/>
<path d="M15.8998 2C15.8998 0.895434 16.7952 0 17.8998 0H22.7619C23.8665 0 24.7619 0.895431 24.7619 2V41.7042C24.7619 44.1514 22.7781 46.1353 20.3309 46.1353C17.8836 46.1353 15.8998 44.1514 15.8998 41.7042V2Z" fill="#203A72"/>
<rect x="11.99" y="1.56372" width="3.12782" height="18.5063" rx="1.56391" fill="#033AFD"/>
<path d="M52 20.2859C52 14.7149 47.4838 10.1987 41.9128 10.1987C41.2938 10.1987 40.792 10.7005 40.792 11.3195V30.712C40.792 31.331 41.2938 31.8328 41.9128 31.8328C47.4838 31.8328 52 27.3166 52 21.7456V20.2859Z" fill="#203A72"/>
<path d="M36.1002 12.1987C36.1002 11.0942 35.2048 10.1987 34.1002 10.1987H29.2381C28.1335 10.1987 27.2381 11.0942 27.2381 12.1987V51.903C27.2381 54.3502 29.2219 56.334 31.6691 56.334C34.1164 56.334 36.1002 54.3502 36.1002 51.903V12.1987Z" fill="#203A72"/>
<rect width="3.12782" height="18.5063" rx="1.56391" transform="matrix(-1 0 0 1 40.01 11.7622)" fill="#033AFD"/>
</svg>
