<svg width="65" height="57" viewBox="0 0 65 57" fill="none" xmlns="http://www.w3.org/2000/svg">
<g clip-path="url(#clip0_178_943)">
<path d="M36.8909 4.51015C36.8909 6.69206 36.1144 6.89384 34.7044 7.26192C33.433 7.59231 31.3059 8.14666 31.3059 11.1335V13.3398H30.2875C29.7684 13.3398 29.346 13.7633 29.346 14.2888V16.1026H3.03149C1.35975 16.1026 0.00476074 17.4685 0.00476074 19.1515V50.1106H65.0004V19.1515C65.0004 17.4663 63.6454 16.1004 61.9736 16.1004H35.6591V14.2866C35.6591 13.7611 35.2367 13.3375 34.7176 13.3375H33.6992V11.1313C33.6992 10.0514 33.9785 9.94052 35.3027 9.59461C36.7919 9.20657 39.2819 8.55909 39.2819 4.50794V0H36.8887V4.51015H36.8909ZM40.1662 22.4975V25.5775C40.1662 26.0941 39.7504 26.511 39.2401 26.511H35.4743C34.9618 26.511 34.5482 26.0919 34.5482 25.5775V22.4975C34.5482 21.9831 34.964 21.564 35.4743 21.564H39.2401C39.7526 21.564 40.1662 21.9831 40.1662 22.4975ZM34.5482 31.5666C34.5482 31.05 34.964 30.6331 35.4743 30.6331H39.2401C39.7526 30.6331 40.1662 31.0522 40.1662 31.5666V34.6444C40.1662 35.161 39.7504 35.5779 39.2401 35.5779H35.4743C34.9618 35.5779 34.5482 35.1588 34.5482 34.6444V31.5666ZM24.8411 22.4975C24.8411 21.9831 25.2569 21.564 25.7672 21.564H29.533C30.0455 21.564 30.4591 21.9831 30.4591 22.4975V25.5775C30.4591 26.0941 30.0433 26.511 29.533 26.511H25.7672C25.2547 26.511 24.8411 26.0919 24.8411 25.5775V22.4975ZM24.8411 31.5666C24.8411 31.05 25.2569 30.6331 25.7672 30.6331H29.533C30.0455 30.6331 30.4591 31.0522 30.4591 31.5666V34.6444C30.4591 35.161 30.0433 35.5779 29.533 35.5779H25.7672C25.2547 35.5779 24.8411 35.1588 24.8411 34.6444V31.5666ZM15.134 22.4975C15.134 21.9831 15.5498 21.564 16.0601 21.564H19.8259C20.3384 21.564 20.752 21.9831 20.752 22.4975V25.5775C20.752 26.0941 20.3362 26.511 19.8259 26.511H16.0601C15.5476 26.511 15.134 26.0919 15.134 25.5775V22.4975ZM15.134 31.5666C15.134 31.05 15.5498 30.6331 16.0601 30.6331H19.8259C20.3384 30.6331 20.752 31.0522 20.752 31.5666V34.6444C20.752 35.161 20.3362 35.5779 19.8259 35.5779H16.0601C15.5476 35.5779 15.134 35.1588 15.134 34.6444V31.5666ZM11.0449 43.7134C11.0449 44.2301 10.6291 44.647 10.1188 44.647H6.35298C5.84046 44.647 5.42693 44.2279 5.42693 43.7134V40.6357C5.42693 40.1191 5.84266 39.7022 6.35298 39.7022H10.1188C10.6313 39.7022 11.0449 40.1213 11.0449 40.6357V43.7134ZM11.0449 34.6444C11.0449 35.161 10.6291 35.5779 10.1188 35.5779H6.35298C5.84046 35.5779 5.42693 35.1588 5.42693 34.6444V31.5666C5.42693 31.05 5.84266 30.6331 6.35298 30.6331H10.1188C10.6313 30.6331 11.0449 31.0522 11.0449 31.5666V34.6444ZM11.0449 25.5753C11.0449 26.0919 10.6291 26.5088 10.1188 26.5088H6.35298C5.84046 26.5088 5.42693 26.0897 5.42693 25.5753V22.4953C5.42693 21.9809 5.84266 21.5618 6.35298 21.5618H10.1188C10.6313 21.5618 11.0449 21.9809 11.0449 22.4953V25.5753ZM49.8755 43.7134C49.8755 44.2301 49.4597 44.647 48.9494 44.647H16.0579C15.5454 44.647 15.1318 44.2279 15.1318 43.7134V40.6357C15.1318 40.1191 15.5476 39.7022 16.0579 39.7022H48.9472C49.4597 39.7022 49.8733 40.1213 49.8733 40.6357V43.7134H49.8755ZM49.8755 34.6444C49.8755 35.161 49.4597 35.5779 48.9494 35.5779H45.1836C44.6711 35.5779 44.2575 35.1588 44.2575 34.6444V31.5666C44.2575 31.05 44.6733 30.6331 45.1836 30.6331H48.9494C49.4619 30.6331 49.8755 31.0522 49.8755 31.5666V34.6444ZM49.8755 25.5753C49.8755 26.0919 49.4597 26.5088 48.9494 26.5088H45.1836C44.6711 26.5088 44.2575 26.0897 44.2575 25.5753V22.4953C44.2575 21.9809 44.6733 21.5618 45.1836 21.5618H48.9494C49.4619 21.5618 49.8755 21.9809 49.8755 22.4953V25.5753ZM59.5826 43.7134C59.5826 44.2301 59.1669 44.647 58.6565 44.647H54.8907C54.3782 44.647 53.9647 44.2279 53.9647 43.7134V40.6357C53.9647 40.1191 54.3804 39.7022 54.8907 39.7022H58.6565C59.1691 39.7022 59.5826 40.1213 59.5826 40.6357V43.7134ZM59.5826 34.6444C59.5826 35.161 59.1669 35.5779 58.6565 35.5779H54.8907C54.3782 35.5779 53.9647 35.1588 53.9647 34.6444V31.5666C53.9647 31.05 54.3804 30.6331 54.8907 30.6331H58.6565C59.1691 30.6331 59.5826 31.0522 59.5826 31.5666V34.6444ZM59.5826 25.5753C59.5826 26.0919 59.1669 26.5088 58.6565 26.5088H54.8907C54.3782 26.5088 53.9647 26.0897 53.9647 25.5753V22.4953C53.9647 21.9809 54.3804 21.5618 54.8907 21.5618H58.6565C59.1691 21.5618 59.5826 21.9809 59.5826 22.4953V25.5753Z" fill="#203A72"/>
<path d="M0 52.625H65V54.002C65 55.6562 63.667 56.9999 62.0261 56.9999H2.97394C1.333 56.9999 0 55.6562 0 54.002V52.625Z" fill="#033AFD"/>
</g>
<defs>
<clipPath id="clip0_178_943">
<rect width="65" height="57" fill="white"/>
</clipPath>
</defs>
</svg>
