<svg width="39" height="60" viewBox="0 0 39 60" fill="none" xmlns="http://www.w3.org/2000/svg">
<g clip-path="url(#clip0_178_946)">
<path d="M21.0958 20.8286V27.9294C21.0958 29.0671 22.0139 29.9896 23.1416 29.9896C24.2693 29.9896 25.1874 29.0671 25.1874 27.9294V20.8286C25.1874 19.6955 24.2693 18.7729 23.1416 18.7729C22.0139 18.7729 21.0958 19.6955 21.0958 20.8286Z" fill="#203A72"/>
<path d="M39 24.141V25.1368H28.0056V20.8287C28.0056 18.6288 26.5498 16.7632 24.5519 16.152V8.26831C28.3564 8.60939 31.7851 10.3148 34.3412 12.8832C37.2162 15.7766 39 19.7597 39 24.1387V24.141Z" fill="#203A72"/>
<path d="M18.2755 25.1368H7.28333V24.141C7.28333 15.8567 13.6622 8.98938 21.7315 8.26831V16.152C19.7335 16.7632 18.2778 18.6266 18.2778 20.8287V25.1368H18.2755Z" fill="#203A72"/>
<path d="M39 27.9639V44.0678C39 52.8305 31.8648 60 23.1394 60C14.414 60 7.28333 52.8305 7.28333 44.0678V27.9639H18.2778C18.2937 30.6421 20.4739 32.8214 23.1394 32.8214C25.8048 32.8214 27.9896 30.6421 28.0078 27.9639H39.0023H39Z" fill="#203A72"/>
<path d="M7.14656 9.33523C7.44272 9.63281 7.83001 9.78161 8.21958 9.78161C8.60915 9.78161 8.99644 9.63281 9.2926 9.33523C9.88492 8.74006 9.88492 7.77405 9.2926 7.18117L6.79345 4.67001C6.20112 4.07484 5.24201 4.07484 4.64969 4.67001C4.05736 5.26518 4.05736 6.23119 4.64969 6.82407L7.14884 9.33523H7.14656Z" fill="#033AFD"/>
<path d="M4.89796 15.3349C5.54724 15.3349 6.14868 14.9137 6.34688 14.2568C6.59064 13.4533 6.14185 12.5994 5.33993 12.3545L1.95912 11.3152C1.15721 11.0703 0.309728 11.5235 0.0659641 12.327C-0.1778 13.1305 0.270999 13.9843 1.07292 14.2293L4.45372 15.2685C4.6018 15.3143 4.74988 15.3349 4.89796 15.3349Z" fill="#033AFD"/>
<path d="M12.2929 5.36807C12.4934 6.02504 13.0926 6.44624 13.7418 6.44624C13.8876 6.44624 14.038 6.42564 14.1861 6.37986C14.9857 6.13263 15.4391 5.28108 15.193 4.4776L14.1587 1.08055C13.915 0.277075 13.0652 -0.178459 12.2656 0.0687658C11.4659 0.31599 11.0126 1.16754 11.2586 1.97102L12.2929 5.36807Z" fill="#033AFD"/>
</g>
<defs>
<clipPath id="clip0_178_946">
<rect width="39" height="60" fill="white"/>
</clipPath>
</defs>
</svg>
