<svg width="66" height="52" viewBox="0 0 66 52" fill="none" xmlns="http://www.w3.org/2000/svg">
<g clip-path="url(#clip0_181_70)">
<path d="M56.9427 17.6535C56.3214 16.7767 55.111 16.5733 54.2416 17.1998C53.3722 17.8264 53.1704 19.0469 53.7918 19.9237C54.5744 21.0263 54.988 22.3323 54.988 23.6973C54.988 25.0623 54.5744 26.3683 53.7918 27.4709C53.1704 28.3476 53.3722 29.5682 54.2416 30.1947C54.5825 30.4409 54.9759 30.5589 55.3652 30.5589C55.9684 30.5589 56.5634 30.2761 56.9427 29.7411C58.1974 27.9713 58.8591 25.8821 58.8591 23.6973C58.8591 21.5125 58.1954 19.4233 56.9427 17.6535Z" fill="#033AFD"/>
<path d="M61.9432 12.407C61.2594 11.5791 60.039 11.4692 59.2159 12.1568C58.3949 12.8464 58.284 14.0792 58.9678 14.9071C61.0052 17.3706 62.1248 20.4912 62.1248 23.6992C62.1248 26.9073 61.0032 30.0278 58.9678 32.4913C58.284 33.3193 58.3949 34.55 59.2159 35.2417C59.577 35.5448 60.0168 35.6933 60.4545 35.6933C61.0093 35.6933 61.56 35.4532 61.9432 34.9915C64.5576 31.8282 65.9979 27.8186 65.9979 23.7013C65.9979 19.5839 64.5576 15.5723 61.9432 12.4111V12.407Z" fill="#033AFD"/>
<path d="M11.7565 17.2019C10.885 16.5753 9.67672 16.7767 9.05541 17.6555C7.80069 19.4253 7.13904 21.5145 7.13904 23.6993C7.13904 25.8841 7.80271 27.9733 9.05541 29.7431C9.43264 30.2761 10.0277 30.5609 10.6329 30.5609C11.0222 30.5609 11.4156 30.4429 11.7565 30.1968C12.6259 29.5702 12.8276 28.3497 12.2063 27.4729C11.4237 26.3703 11.0101 25.0643 11.0101 23.6993C11.0101 22.3343 11.4237 21.0283 12.2063 19.9258C12.8276 19.049 12.6259 17.8284 11.7565 17.2019Z" fill="#033AFD"/>
<path d="M3.87108 23.6993C3.87108 20.4933 4.99266 17.3707 7.02806 14.9072C7.7119 14.0792 7.60095 12.8485 6.77994 12.1568C5.95892 11.4672 4.73849 11.5771 4.05263 12.407C1.44031 15.5703 0 19.5799 0 23.6993C0 27.8187 1.44031 31.8282 4.05465 34.9895C4.43792 35.4533 4.98863 35.6913 5.54337 35.6913C5.98111 35.6913 6.42087 35.5428 6.78195 35.2397C7.60297 34.5501 7.71392 33.3173 7.03008 32.4894C4.99266 30.0259 3.8731 26.9053 3.8731 23.6972L3.87108 23.6993Z" fill="#033AFD"/>
<path d="M33 17.5943C35.3158 17.5943 37.1979 15.6943 37.1979 13.361C37.1979 11.0277 35.3138 9.12769 33 9.12769C30.6862 9.12769 28.8021 11.0277 28.8021 13.361C28.8021 15.6943 30.6862 17.5943 33 17.5943ZM33 11.6359C33.942 11.6359 34.7106 12.409 34.7106 13.359C34.7106 14.309 33.9441 15.084 33 15.084C32.0559 15.084 31.2914 14.311 31.2914 13.359C31.2914 12.4069 32.0579 11.6359 33 11.6359Z" fill="#203A72"/>
<path d="M46.81 0H19.1899C17.3583 0 15.8716 1.49926 15.8716 3.34637V44.0501C15.8716 45.8972 17.3563 47.3965 19.1899 47.3965H20.8542V50.6004C20.8542 51.3734 21.4755 52.002 22.244 52.002H24.9048C25.6713 52.002 26.2947 51.3755 26.2947 50.6004V47.3965H39.7053V50.6004C39.7053 51.3734 40.3266 52.002 41.0951 52.002H43.7559C44.5224 52.002 45.1457 51.3755 45.1457 50.6004V47.3965H46.81C48.6416 47.3965 50.1283 45.8972 50.1283 44.0501V3.34637C50.1283 1.49926 48.6436 0 46.81 0ZM33 6.80667C36.5886 6.80667 39.4995 9.74008 39.4995 13.3611C39.4995 16.9821 36.5886 19.9155 33 19.9155C29.4113 19.9155 26.5004 16.98 26.5004 13.3611C26.5004 9.74212 29.4113 6.80667 33 6.80667ZM33 40.5898C28.3361 40.5898 24.5538 36.7776 24.5538 32.0723C24.5538 27.367 28.3361 23.5548 33 23.5548C37.6638 23.5548 41.4461 27.3691 41.4461 32.0723C41.4461 36.7755 37.6658 40.5898 33 40.5898Z" fill="#203A72"/>
<path d="M33 26.4456C29.9237 26.4456 27.4203 28.9701 27.4203 32.0723C27.4203 35.1746 29.9237 37.6991 33 37.6991C36.0763 37.6991 38.5797 35.1746 38.5797 32.0723C38.5797 28.9701 36.0763 26.4456 33 26.4456ZM33 34.6315C31.6 34.6315 30.4623 33.4841 30.4623 32.0723C30.4623 30.6606 31.6 29.5132 33 29.5132C34.3999 29.5132 35.5377 30.6606 35.5377 32.0723C35.5377 33.4841 34.3999 34.6315 33 34.6315Z" fill="#203A72"/>
</g>
<defs>
<clipPath id="clip0_181_70">
<rect width="66" height="52" fill="white"/>
</clipPath>
</defs>
</svg>
