<svg width="115" height="26" viewBox="0 0 115 26" fill="none" xmlns="http://www.w3.org/2000/svg">
<path d="M11.5388 17.752C10.2747 18.808 8.48275 19.336 6.16275 19.336C3.84275 19.336 2.23475 18.8 1.33875 17.728C0.698749 16.992 0.378749 15.976 0.378749 14.68C0.378749 14.104 0.442749 13.472 0.570749 12.784L2.51475 1.72H6.83475L4.89075 12.688C4.82675 13.088 4.79475 13.504 4.79475 13.936C4.79475 15.056 5.46675 15.616 6.81075 15.616C7.61075 15.616 8.25075 15.408 8.73075 14.992C9.21075 14.576 9.54675 13.808 9.73875 12.688L11.6827 1.72H16.0027L14.0587 12.784C13.6587 15.024 12.8187 16.68 11.5388 17.752ZM20.5245 15.304C20.5245 15.72 20.7325 15.928 21.1485 15.928C21.5805 15.928 21.9405 15.848 22.2285 15.688L22.1085 18.4C21.3405 19.024 20.4765 19.336 19.5165 19.336C18.0605 19.336 17.1165 19 16.6845 18.328C16.4125 17.896 16.2765 17.424 16.2765 16.912C16.2765 16.4 16.3085 15.952 16.3725 15.568L18.9885 0.783998H23.0685L20.5485 15.016C20.5325 15.112 20.5245 15.208 20.5245 15.304ZM28.6206 19.336C26.7646 19.336 25.4286 18.92 24.6126 18.088C24.0046 17.48 23.7006 16.664 23.7006 15.64C23.7006 15.304 23.7326 14.944 23.7966 14.56L25.4286 5.272L29.8206 3.448L29.1246 7.456H35.7486L35.1486 10.84H28.5246L28.0446 13.552C27.9806 13.856 27.9486 14.128 27.9486 14.368C27.9486 15.376 28.4286 15.88 29.3886 15.88C29.9006 15.88 30.3246 15.664 30.6606 15.232C31.0126 14.8 31.2526 14.224 31.3806 13.504H35.3646C34.6926 17.392 32.4446 19.336 28.6206 19.336ZM48.0564 9.904C48.0564 10.448 47.9604 10.976 47.7684 11.488C47.5924 12 47.4164 12.376 47.2404 12.616L46.9764 12.952H43.3524C43.7524 12.584 43.9524 12.128 43.9524 11.584C43.9524 11.296 43.8564 11.064 43.6644 10.888C43.4884 10.696 43.2404 10.6 42.9204 10.6C42.3764 10.6 41.9044 10.872 41.5044 11.416L40.1604 19H36.0804L38.1204 7.456H41.9124L41.6244 9.064C42.5364 7.768 43.6404 7.12 44.9364 7.12C45.9764 7.12 46.7524 7.368 47.2644 7.864C47.7924 8.36 48.0564 9.04 48.0564 9.904ZM59.7606 15.304C59.7606 15.72 59.9686 15.928 60.3846 15.928C60.8166 15.928 61.1766 15.848 61.4646 15.688L61.3446 18.4C60.5766 19.024 59.7126 19.336 58.7526 19.336C56.9926 19.336 56.0166 18.696 55.8246 17.416C55.0246 18.696 53.8486 19.336 52.2966 19.336C49.6726 19.336 48.3606 18.208 48.3606 15.952C48.3606 15.568 48.4006 15.144 48.4806 14.68L48.9846 11.872C49.2406 10.432 49.8246 9.288 50.7366 8.44C51.6646 7.576 52.8646 7.144 54.3366 7.144C55.8246 7.144 56.8326 7.488 57.3606 8.176L57.4806 7.456H61.1286L59.7846 15.016C59.7686 15.112 59.7606 15.208 59.7606 15.304ZM52.6566 14.152C52.6246 14.296 52.6086 14.496 52.6086 14.752C52.6086 15.008 52.7286 15.264 52.9686 15.52C53.2086 15.76 53.6086 15.88 54.1686 15.88C54.7446 15.88 55.2406 15.656 55.6566 15.208L56.3766 11.176C56.2006 10.776 55.7846 10.576 55.1286 10.576C53.8966 10.576 53.1766 11.168 52.9686 12.352L52.6566 14.152ZM73.2621 19.384C72.9101 21.416 72.1021 23.024 70.8381 24.208C69.5901 25.392 68.1581 25.984 66.5421 25.984C64.9261 25.984 63.7581 25.688 63.0381 25.096C62.3341 24.504 61.9821 23.728 61.9821 22.768C61.9821 21.36 62.8781 20.136 64.6701 19.096C63.3101 18.664 62.6301 17.632 62.6301 16C62.6301 15.6 62.6701 15.16 62.7501 14.68L63.2301 11.872C63.4861 10.432 64.0781 9.288 65.0061 8.44C65.9341 7.576 67.1341 7.144 68.6061 7.144C70.0941 7.144 71.1101 7.504 71.6541 8.224L71.7981 7.456H75.3741L73.2621 19.384ZM66.9261 14.152C66.8941 14.296 66.8781 14.496 66.8781 14.752C66.8781 15.008 66.9981 15.264 67.2381 15.52C67.4781 15.76 67.8781 15.88 68.4381 15.88C69.0141 15.88 69.5101 15.656 69.9261 15.208L70.6461 11.176C70.4221 10.776 69.9981 10.576 69.3741 10.576C68.7501 10.576 68.2621 10.736 67.9101 11.056C67.5581 11.376 67.3341 11.808 67.2381 12.352L66.9261 14.152ZM67.0941 22.552C68.1341 22.552 68.8141 21.608 69.1341 19.72L69.3741 18.328C67.1501 19.368 66.0381 20.416 66.0381 21.472C66.0381 21.792 66.1261 22.048 66.3021 22.24C66.4941 22.448 66.7581 22.552 67.0941 22.552ZM80.6694 19.336C77.3414 19.336 75.6774 18.184 75.6774 15.88C75.6774 15.56 75.7094 15.216 75.7734 14.848L76.2774 11.872C76.5494 10.336 77.2534 9.16 78.3894 8.344C79.5414 7.512 81.0614 7.096 82.9494 7.096C86.1654 7.096 87.7734 8.312 87.7734 10.744C87.7734 11.096 87.7414 11.48 87.6774 11.896L87.3894 13.6H80.0694L79.9734 14.152C79.9414 14.344 79.9254 14.52 79.9254 14.68C79.9254 15.56 80.4454 16 81.4854 16C81.8694 16 82.1974 15.88 82.4694 15.64C82.7414 15.4 82.9014 15.12 82.9494 14.8L86.9334 14.848C86.4054 17.84 84.3174 19.336 80.6694 19.336ZM83.5494 12.136C83.6134 11.864 83.6454 11.616 83.6454 11.392C83.6454 11.152 83.5414 10.912 83.3334 10.672C83.1254 10.432 82.7894 10.312 82.3254 10.312C81.8774 10.312 81.4614 10.464 81.0774 10.768C80.7094 11.072 80.4534 11.528 80.3094 12.136H83.5494ZM100.08 15.304C100.08 15.72 100.288 15.928 100.704 15.928C101.136 15.928 101.496 15.848 101.784 15.688L101.664 18.4C100.896 19.024 100.032 19.336 99.0716 19.336C97.3116 19.336 96.3356 18.696 96.1436 17.416C95.3436 18.696 94.1676 19.336 92.6156 19.336C89.9916 19.336 88.6796 18.208 88.6796 15.952C88.6796 15.568 88.7196 15.144 88.7996 14.68L89.3036 11.872C89.5596 10.432 90.1436 9.288 91.0556 8.44C91.9836 7.576 93.1836 7.144 94.6556 7.144C96.1436 7.144 97.1516 7.488 97.6796 8.176L97.7996 7.456H101.448L100.104 15.016C100.088 15.112 100.08 15.208 100.08 15.304ZM92.9756 14.152C92.9436 14.296 92.9276 14.496 92.9276 14.752C92.9276 15.008 93.0476 15.264 93.2876 15.52C93.5276 15.76 93.9276 15.88 94.4876 15.88C95.0636 15.88 95.5596 15.656 95.9756 15.208L96.6956 11.176C96.5196 10.776 96.1036 10.576 95.4476 10.576C94.2156 10.576 93.4956 11.168 93.2876 12.352L92.9756 14.152ZM114.661 9.904C114.661 10.448 114.565 10.976 114.373 11.488C114.197 12 114.021 12.376 113.845 12.616L113.581 12.952H109.957C110.357 12.584 110.557 12.128 110.557 11.584C110.557 11.296 110.461 11.064 110.269 10.888C110.093 10.696 109.845 10.6 109.525 10.6C108.981 10.6 108.509 10.872 108.109 11.416L106.765 19H102.685L104.725 7.456H108.517L108.229 9.064C109.141 7.768 110.245 7.12 111.541 7.12C112.581 7.12 113.357 7.368 113.869 7.864C114.397 8.36 114.661 9.04 114.661 9.904Z" fill="black"/>
</svg>
