<svg width="168" height="155" viewBox="0 0 168 155" fill="none" xmlns="http://www.w3.org/2000/svg">
<g opacity="0.5">
<path d="M168 84.0586L-5 84.0586" stroke="#E3C08D"/>
<path d="M168 76.5083H-5" stroke="#E3C08D"/>
<path d="M168 68.9562H-5" stroke="#E3C08D"/>
<path d="M168 61.4059L-5 61.4059" stroke="#E3C08D"/>
<path d="M168 53.8556L-5 53.8556" stroke="#E3C08D"/>
<path d="M168 46.3053L-5 46.3053" stroke="#E3C08D"/>
<path d="M168 38.7532L-5 38.7532" stroke="#E3C08D"/>
<path d="M168 31.2029L-5 31.2029" stroke="#E3C08D"/>
<path d="M168 23.6526L-5 23.6526" stroke="#E3C08D"/>
<path d="M168 16.1006L-5 16.1006" stroke="#E3C08D"/>
<path d="M168 8.55028L-5 8.55028" stroke="#E3C08D"/>
<path d="M168 0.999985L-5 0.999985" stroke="#E3C08D"/>
<path d="M3.30469 154.533L3.30469 84.0589" stroke="#E3C08D"/>
<path d="M11.6094 154.533L11.6094 84.0589" stroke="#E3C08D"/>
<path d="M19.9141 154.533L19.9141 84.0589" stroke="#E3C08D"/>
<path d="M28.2148 154.533L28.2148 84.0589" stroke="#E3C08D"/>
<path d="M36.5195 154.533L36.5195 84.0589" stroke="#E3C08D"/>
<path d="M44.8242 154.533L44.8242 84.0589" stroke="#E3C08D"/>
<path d="M53.1289 154.533L53.1289 84.0589" stroke="#E3C08D"/>
<path d="M61.4336 154.533L61.4336 84.0589" stroke="#E3C08D"/>
<path d="M69.7344 154.533L69.7344 84.0589" stroke="#E3C08D"/>
<path d="M78.0391 154.533L78.0391 84.0589" stroke="#E3C08D"/>
<path d="M86.3438 154.533L86.3438 84.0589" stroke="#E3C08D"/>
</g>
</svg>
