<svg width="14" height="16" viewBox="0 0 14 16" fill="none" xmlns="http://www.w3.org/2000/svg">
<path fill-rule="evenodd" clip-rule="evenodd" d="M11.5177 6.99318C11.5177 9.4614 9.51682 11.4623 7.0486 11.4623C4.58038 11.4623 2.57949 9.4614 2.57949 6.99318C2.57949 4.52496 4.58038 2.52407 7.0486 2.52407C9.51682 2.52407 11.5177 4.52496 11.5177 6.99318ZM10.0625 12.2623C9.17448 12.7713 8.14552 13.0623 7.0486 13.0623C3.69672 13.0623 0.979492 10.3451 0.979492 6.99318C0.979492 3.6413 3.69672 0.924072 7.0486 0.924072C10.4005 0.924072 13.1177 3.6413 13.1177 6.99318C13.1177 8.66912 12.4384 10.1864 11.3401 11.2847L13.7658 13.7104C14.0783 14.0228 14.0783 14.5294 13.7658 14.8418C13.4534 15.1542 12.9469 15.1542 12.6345 14.8418L10.1244 12.3317C10.1022 12.3095 10.0815 12.2863 10.0625 12.2623Z" fill="#444B59"/>
</svg>
