<svg width="64" height="64" viewBox="0 0 64 64" fill="none" xmlns="http://www.w3.org/2000/svg">
<g clip-path="url(#clip0_178_956)">
<path d="M18.6556 41.5035C18.4081 39.9708 16.9544 38.9273 15.4084 39.1731C14.5639 39.308 13.9911 40.0961 14.127 40.9347L17.498 61.7419C17.6339 62.5805 18.4275 63.1493 19.2721 63.0143C20.8156 62.7685 21.8664 61.325 21.6189 59.7899L18.6556 41.5011V41.5035Z" fill="#033AFD"/>
<path d="M48.6959 39.1756C47.1524 38.9298 45.6986 39.9709 45.4487 41.506L42.4854 59.7948C42.2379 61.3275 43.2863 62.771 44.8322 63.0192C45.6768 63.1542 46.4704 62.583 46.6063 61.7468L49.9773 40.9396C50.1132 40.101 49.538 39.313 48.6959 39.178V39.1756Z" fill="#033AFD"/>
<path d="M64 33.4737C64 15.0162 49.6448 0 31.9988 0C14.3527 0 0 15.0162 0 33.4737C0 37.6211 0.730499 41.677 2.12112 45.4654C0.817868 47.6632 0.247545 50.3069 0.686815 53.0229L0.919798 54.4543C1.92211 60.643 7.78795 64.8531 14.0203 63.8578C15.0881 63.6867 15.8137 62.689 15.6439 61.6286L12.4039 41.6264C12.2316 40.566 11.2269 39.8455 10.159 40.0166C8.83152 40.2286 7.5938 40.6624 6.47985 41.2697C5.79546 38.7634 5.44113 36.1438 5.44113 33.4761C5.44113 25.4993 8.61067 18.296 13.6805 13.1798C14.3673 13.7967 15.2361 14.11 16.1074 14.11C17.0248 14.11 17.9421 13.7678 18.6459 13.0786C22.2742 9.54084 26.9848 8.04428 31.909 8.04428C36.5395 8.04428 41.0317 9.34081 44.5605 12.5074C45.9923 13.7919 48.1717 13.7293 49.5283 12.4038C55.0641 17.5514 58.5662 25.0872 58.5662 33.4737C58.5662 36.1222 58.2143 38.7249 57.5396 41.2191C56.4475 40.6383 55.2413 40.2214 53.9502 40.0142C52.8823 39.8431 51.8776 40.5636 51.7053 41.624L48.4654 61.6262C48.2931 62.6866 49.0211 63.6843 50.089 63.8554C56.3213 64.8507 62.1871 60.6406 63.1894 54.4519L63.4224 53.0204C63.8689 50.2611 63.2719 47.5765 61.925 45.3593C63.2889 41.5999 64.0097 37.5826 64.0097 33.4737H64Z" fill="#203A72"/>
</g>
<defs>
<clipPath id="clip0_178_956">
<rect width="64" height="64" fill="white"/>
</clipPath>
</defs>
</svg>
