<svg width="95" height="21" viewBox="0 0 95 21" fill="none" xmlns="http://www.w3.org/2000/svg">
<path d="M9.27702 14.14C8.22629 15.02 6.73665 15.46 4.80809 15.46C2.87953 15.46 1.54285 15.0133 0.798023 14.12C0.266008 13.5067 0 12.66 0 11.58C0 11.1 0.0532016 10.5733 0.159605 10L1.7756 0.780001H5.36671L3.75071 9.92C3.69751 10.2533 3.67091 10.6 3.67091 10.96C3.67091 11.8933 4.22952 12.36 5.34676 12.36C6.01178 12.36 6.54379 12.1867 6.9428 11.84C7.34182 11.4933 7.62112 10.8533 7.78073 9.92L9.39672 0.780001H12.9878L11.3718 10C11.0393 11.8667 10.3411 13.2467 9.27702 14.14Z" fill="#697072"/>
<path d="M16.7466 12.1C16.7466 12.4467 16.9195 12.62 17.2654 12.62C17.6245 12.62 17.9237 12.5533 18.1631 12.42L18.0634 14.68C17.425 15.2 16.7067 15.46 15.9087 15.46C14.6984 15.46 13.9137 15.18 13.5546 14.62C13.3284 14.26 13.2154 13.8667 13.2154 13.44C13.2154 13.0133 13.242 12.64 13.2952 12.32L15.4698 0H18.8614L16.7666 11.86C16.7533 11.94 16.7466 12.02 16.7466 12.1Z" fill="#697072"/>
<path d="M23.4767 15.46C21.9338 15.46 20.8233 15.1133 20.1449 14.42C19.6395 13.9133 19.3868 13.2333 19.3868 12.38C19.3868 12.1 19.4134 11.8 19.4666 11.48L20.8233 3.74L24.4742 2.22L23.8957 5.56H29.402L28.9033 8.38H23.3969L22.9979 10.64C22.9447 10.8933 22.9181 11.12 22.9181 11.32C22.9181 12.16 23.3171 12.58 24.1151 12.58C24.5407 12.58 24.8932 12.4 25.1725 12.04C25.4651 11.68 25.6646 11.2 25.771 10.6H29.0828C28.5242 13.84 26.6555 15.46 23.4767 15.46Z" fill="#697072"/>
<path d="M39.6332 7.6C39.6332 8.05333 39.5534 8.49333 39.3938 8.92C39.2475 9.34667 39.1012 9.66 38.9549 9.86L38.7355 10.14H35.7229C36.0554 9.83333 36.2217 9.45333 36.2217 9C36.2217 8.76 36.1419 8.56667 35.9823 8.42C35.836 8.26 35.6298 8.18 35.3638 8.18C34.9116 8.18 34.5192 8.40667 34.1867 8.86L33.0695 15.18H29.6779L31.3737 5.56H34.5259L34.2865 6.9C35.0446 5.82 35.9623 5.28 37.0397 5.28C37.9042 5.28 38.5493 5.48667 38.9749 5.9C39.4138 6.31333 39.6332 6.88 39.6332 7.6Z" fill="#697072"/>
<path d="M49.3626 12.1C49.3626 12.4467 49.5355 12.62 49.8813 12.62C50.2404 12.62 50.5397 12.5533 50.7791 12.42L50.6793 14.68C50.0409 15.2 49.3227 15.46 48.5247 15.46C47.0616 15.46 46.2503 14.9267 46.0907 13.86C45.4257 14.9267 44.4481 15.46 43.1579 15.46C40.9767 15.46 39.886 14.52 39.886 12.64C39.886 12.32 39.9193 11.9667 39.9858 11.58L40.4048 9.24C40.6176 8.04 41.103 7.08667 41.8612 6.38C42.6326 5.66 43.6301 5.3 44.8537 5.3C46.0907 5.3 46.9286 5.58667 47.3675 6.16L47.4673 5.56H50.4998L49.3825 11.86C49.3692 11.94 49.3626 12.02 49.3626 12.1ZM43.4572 11.14C43.4306 11.26 43.4173 11.4267 43.4173 11.64C43.4173 11.8533 43.5171 12.0667 43.7166 12.28C43.9161 12.48 44.2486 12.58 44.7141 12.58C45.1929 12.58 45.6052 12.3933 45.951 12.02L46.5495 8.66C46.4032 8.32667 46.0574 8.16 45.5121 8.16C44.488 8.16 43.8895 8.65333 43.7166 9.64L43.4572 11.14Z" fill="#697072"/>
<path d="M60.586 15.5C60.2934 17.1933 59.6217 18.5333 58.571 19.52C57.5336 20.5067 56.3432 21 54.9999 21C53.6565 21 52.6856 20.7533 52.0871 20.26C51.5019 19.7667 51.2092 19.12 51.2092 18.32C51.2092 17.1467 51.9541 16.1267 53.4437 15.26C52.3132 14.9 51.7479 14.04 51.7479 12.68C51.7479 12.3467 51.7812 11.98 51.8477 11.58L52.2467 9.24C52.4595 8.04 52.9516 7.08667 53.723 6.38C54.4944 5.66 55.492 5.3 56.7156 5.3C57.9525 5.3 58.7971 5.6 59.2493 6.2L59.369 5.56H62.3417L60.586 15.5ZM55.3191 11.14C55.2925 11.26 55.2792 11.4267 55.2792 11.64C55.2792 11.8533 55.3789 12.0667 55.5784 12.28C55.7779 12.48 56.1104 12.58 56.576 12.58C57.0548 12.58 57.4671 12.3933 57.8129 12.02L58.4114 8.66C58.2252 8.32667 57.8727 8.16 57.354 8.16C56.8353 8.16 56.4297 8.29333 56.137 8.56C55.8444 8.82667 55.6582 9.18667 55.5784 9.64L55.3191 11.14ZM55.4587 18.14C56.3232 18.14 56.8885 17.3533 57.1545 15.78L57.354 14.62C55.5053 15.4867 54.5809 16.36 54.5809 17.24C54.5809 17.5067 54.6541 17.72 54.8004 17.88C54.96 18.0533 55.1794 18.14 55.4587 18.14Z" fill="#697072"/>
<path d="M66.7436 15.46C63.9771 15.46 62.5939 14.5 62.5939 12.58C62.5939 12.3133 62.6205 12.0267 62.6737 11.72L63.0926 9.24C63.3187 7.96 63.9039 6.98 64.8483 6.3C65.8059 5.60667 67.0694 5.26 68.6389 5.26C71.3123 5.26 72.649 6.27333 72.649 8.3C72.649 8.59333 72.6224 8.91333 72.5692 9.26L72.3298 10.68H66.2448L66.165 11.14C66.1384 11.3 66.1251 11.4467 66.1251 11.58C66.1251 12.3133 66.5574 12.68 67.4219 12.68C67.7411 12.68 68.0138 12.58 68.2399 12.38C68.466 12.18 68.599 11.9467 68.6389 11.68L71.9507 11.72C71.5118 14.2133 69.7761 15.46 66.7436 15.46ZM69.1376 9.46C69.1908 9.23333 69.2175 9.02667 69.2175 8.84C69.2175 8.64 69.131 8.44 68.9581 8.24C68.7852 8.04 68.5059 7.94 68.1202 7.94C67.7478 7.94 67.4019 8.06667 67.0827 8.32C66.7768 8.57333 66.564 8.95333 66.4443 9.46H69.1376Z" fill="#697072"/>
<path d="M82.8788 12.1C82.8788 12.4467 83.0517 12.62 83.3975 12.62C83.7566 12.62 84.0559 12.5533 84.2953 12.42L84.1955 14.68C83.5571 15.2 82.8389 15.46 82.0408 15.46C80.5778 15.46 79.7665 14.9267 79.6069 13.86C78.9419 14.9267 77.9643 15.46 76.6741 15.46C74.4929 15.46 73.4023 14.52 73.4023 12.64C73.4023 12.32 73.4355 11.9667 73.502 11.58L73.921 9.24C74.1338 8.04 74.6192 7.08667 75.3774 6.38C76.1488 5.66 77.1463 5.3 78.3699 5.3C79.6069 5.3 80.4448 5.58667 80.8837 6.16L80.9835 5.56H84.016L82.8987 11.86C82.8854 11.94 82.8788 12.02 82.8788 12.1ZM76.9734 11.14C76.9468 11.26 76.9335 11.4267 76.9335 11.64C76.9335 11.8533 77.0332 12.0667 77.2328 12.28C77.4323 12.48 77.7648 12.58 78.2303 12.58C78.7091 12.58 79.1214 12.3933 79.4672 12.02L80.0657 8.66C79.9194 8.32667 79.5736 8.16 79.0283 8.16C78.0042 8.16 77.4057 8.65333 77.2328 9.64L76.9734 11.14Z" fill="#697072"/>
<path d="M95 7.6C95 8.05333 94.9202 8.49333 94.7606 8.92C94.6143 9.34667 94.468 9.66 94.3217 9.86L94.1022 10.14H91.0897C91.4222 9.83333 91.5885 9.45333 91.5885 9C91.5885 8.76 91.5087 8.56667 91.349 8.42C91.2027 8.26 90.9966 8.18 90.7306 8.18C90.2784 8.18 89.886 8.40667 89.5535 8.86L88.4363 15.18H85.0447L86.7405 5.56H89.8927L89.6532 6.9C90.4114 5.82 91.3291 5.28 92.4064 5.28C93.271 5.28 93.916 5.48667 94.3416 5.9C94.7805 6.31333 95 6.88 95 7.6Z" fill="#697072"/>
</svg>
