<svg width="1920" height="464" viewBox="0 0 1920 464" fill="none" xmlns="http://www.w3.org/2000/svg">
<g opacity="0.6" clip-path="url(#clip0_164_164)">
<g opacity="0.04">
<path d="M1920 109.09C1886.13 114.576 1852.98 121.346 1819.84 129.536C1731.04 151.476 1641.21 184.09 1552.84 226.46C1470.75 265.822 1405.06 306.169 1362.78 333.096C1342.48 346.031 1325.06 357.698 1309.7 367.996C1274.4 391.647 1253.09 405.925 1248.37 400.196C1239.13 388.998 1295.8 324.842 1355.79 256.914C1386.64 221.989 1418.53 185.869 1443.75 154.45C1463.33 130.07 1476.22 112.302 1484.32 98.5399C1493.96 82.1756 1496.49 71.8604 1492.06 67.0057C1484.77 59.0283 1460.07 66.481 1414.33 90.4473C1372.67 112.276 1318.02 145.269 1254.75 183.476C1158.72 241.454 1049.88 307.172 944.862 359.23C764.873 449.007 653.628 471.293 604.762 427.353C583.616 408.306 574.865 377.087 578.018 331.923C580.804 291.989 592.26 246.497 603.337 202.502C613.385 162.598 622.874 124.908 625.51 93.4463C626.927 76.5658 626.24 62.9658 623.411 51.8786C620.25 39.4774 614.498 30.4377 605.828 24.2478C595.699 17.0127 581.918 14.2611 564.873 16.0656C548.664 17.7848 529.062 23.6719 506.607 33.5647C465.207 51.806 412.497 84.3725 349.952 130.356C294.967 170.78 230.95 222.624 159.689 284.447C110.746 326.906 57.1861 375.116 0 428.181V428.838C139.883 299.041 257.557 198.876 350.229 130.748C412.749 84.7863 465.425 52.2369 506.795 34.0084C529.203 24.1326 548.762 18.2584 564.919 16.5477C581.845 14.756 595.511 17.4777 605.547 24.6403C641.203 50.1039 622.583 124.072 602.867 202.387C591.787 246.403 580.326 291.917 577.536 331.893C576.026 353.518 577.165 371.46 581.018 386.758C585.31 403.805 593.19 417.584 604.437 427.716C618.176 440.07 637.15 447.28 660.838 449.148C682.863 450.884 709.628 448.052 740.386 440.727C794.675 427.801 861.628 401.284 945.071 359.665C1050.11 307.598 1158.96 241.877 1254.99 183.889C1378.57 109.277 1476.18 50.3385 1491.7 67.3342C1501.79 78.3703 1471.18 119.528 1443.38 154.151C1418.17 185.562 1386.27 221.673 1355.43 256.599C1324.8 291.273 1295.88 324.027 1275.43 349.921C1252.36 379.148 1243.64 395.222 1248 400.503C1253 406.565 1273.23 393.008 1309.96 368.393C1325.32 358.099 1342.74 346.432 1363.04 333.502C1462.81 269.955 1618.73 179.721 1819.95 130.006C1853.06 121.828 1886.17 115.062 1920 109.58V109.094L1920 109.09Z" fill="url(#paint0_linear_164_164)"/>
</g>
<g opacity="0.08">
<path d="M1920 118.513C1885.94 124.187 1852.95 130.987 1820.3 139.045C1624.87 187.289 1467.58 272.242 1366.26 331.945C1345.56 344.145 1328.01 355.181 1312.54 364.921C1278.94 386.054 1258.67 398.814 1253.74 392.547C1249.11 386.651 1257.35 369.524 1278.95 340.186C1298.42 313.733 1325.99 280.855 1355.17 246.049C1383.16 212.676 1412.1 178.169 1434.53 148.413C1452.97 123.952 1464.36 107.247 1471.47 94.2526C1480.11 78.4685 1481.94 68.6226 1477.09 64.1518C1469 56.712 1444.76 63.8703 1400.78 86.6805C1360.69 107.469 1308.37 138.913 1247.8 175.319C1150.82 233.601 1040.91 299.66 933.589 351.193C851.025 390.841 784.823 415.882 731.2 427.758C668.403 441.666 622.989 436.832 596.224 413.395C574.882 394.642 565.295 364.247 566.908 320.465C568.333 281.772 578.052 237.888 587.452 195.446C595.989 156.899 604.049 120.493 605.491 90.2767C606.263 74.0617 605.065 61.0419 601.818 50.4708C598.187 38.6498 592.098 30.1051 583.198 24.346C572.864 17.6569 559.053 15.3064 542.148 17.3668C526.08 19.3249 506.769 25.3186 484.762 35.1816C444.198 53.3632 392.866 85.4007 332.19 130.407C278.891 169.944 216.969 220.543 148.147 280.791C102.635 320.64 52.9621 365.714 0 415.216V415.937C133.619 290.97 242.731 197.43 332.506 130.838C393.148 85.8529 444.446 53.8367 484.975 35.6679C506.935 25.8263 526.191 19.8454 542.208 17.8958C558.985 15.8524 572.676 18.1731 582.904 24.7939C599.565 35.5783 606.571 56.375 604.954 90.2469C603.516 120.416 595.456 156.805 586.927 195.326C577.523 237.79 567.799 281.7 566.37 320.439C565.598 341.402 567.3 358.829 571.576 373.726C576.341 390.333 584.516 403.814 595.87 413.792C609.826 426.014 628.851 433.291 652.412 435.429C674.342 437.417 700.885 435.011 731.311 428.275C784.973 416.394 851.213 391.336 933.815 351.67C1041.15 300.129 1151.08 234.062 1248.07 175.771C1366.2 104.773 1459.51 48.6919 1476.72 64.54C1487.29 74.2622 1462.48 110.442 1434.1 148.089C1411.67 177.836 1382.75 212.335 1354.76 245.703C1325.57 280.518 1298 313.4 1278.52 339.866C1256.46 369.835 1248.45 386.681 1253.32 392.876C1258.54 399.513 1277.82 387.385 1312.81 365.368C1328.29 355.634 1345.83 344.602 1366.53 332.401C1467.81 272.716 1625.07 187.789 1820.42 139.557C1853.03 131.507 1885.99 124.716 1920 119.046V118.505L1920 118.513Z" fill="url(#paint1_linear_164_164)"/>
</g>
<g opacity="0.12">
<path d="M1920 127.89C1891.12 132.843 1857.58 139.476 1820.77 148.554C1634.81 194.418 1482.05 270.037 1369.75 330.797C1348.96 342.042 1330.74 352.728 1316.1 361.316C1283.78 380.278 1264.26 391.719 1259.11 384.902C1253.99 378.128 1261.38 360.352 1281.7 330.55C1299.98 303.742 1325.94 270.979 1353.43 236.293C1378.94 204.106 1405.32 170.818 1425.3 142.373C1456.05 98.574 1472.94 69.736 1462.11 61.2936C1453.26 54.387 1429.48 61.2595 1387.3 82.9222C1348.83 102.682 1298.9 132.578 1241.09 167.197C1148.01 222.936 1032.16 292.305 922.321 343.147C840.841 380.863 775.369 404.47 722.163 415.323C660.134 427.976 614.891 422.626 587.691 399.428C566.174 380.986 555.746 351.427 555.814 309.066C555.874 271.645 563.857 229.39 571.576 188.527C578.607 151.31 585.246 116.154 585.493 87.154C585.626 71.5917 583.906 59.1393 580.237 49.0801C576.132 37.835 569.698 29.7766 560.563 24.4484C550.029 18.3054 536.192 16.3601 519.433 18.6722C503.501 20.8692 484.489 26.9653 462.929 36.7984C423.202 54.916 373.244 86.4288 314.445 130.458C229.043 194.401 125.811 283.581 0 402.145V402.952C125.973 284.212 229.321 194.925 314.79 130.923C373.555 86.9194 423.479 55.4279 463.168 37.3274C484.676 27.5156 503.633 21.4323 519.509 19.2481C536.137 16.9573 549.85 18.877 560.269 24.9517C577.357 34.9171 585.186 54.6814 584.909 87.1455C584.661 116.094 578.027 151.221 571 188.411C563.277 229.301 555.29 271.581 555.226 309.057C555.157 351.602 565.649 381.31 587.307 399.867C601.485 411.957 620.561 419.316 644.006 421.735C665.86 423.992 692.194 422.025 722.278 415.89C775.531 405.029 841.041 381.409 922.564 343.672C1032.44 292.817 1148.29 223.439 1241.39 167.691C1353.96 100.28 1442.88 47.0325 1461.75 61.7458C1466.75 65.6449 1465.54 74.7869 1458.07 89.6965C1451.96 101.889 1442.01 117.541 1424.81 142.027C1404.85 170.46 1378.48 203.735 1352.97 235.917C1298.43 304.736 1246.92 369.741 1258.64 385.244C1264.11 392.479 1282.68 381.588 1316.39 361.811C1331.03 353.223 1349.24 342.541 1370.01 331.3C1482.29 270.561 1635.01 194.96 1820.9 149.113C1857.66 140.048 1891.14 133.423 1919.99 128.474V127.877L1920 127.89Z" fill="url(#paint2_linear_164_164)"/>
</g>
<g opacity="0.17">
<path d="M1920 137.301C1890.97 142.424 1857.45 149.139 1821.23 158.063C1737.45 178.706 1650.17 207.485 1561.81 243.596C1487.19 274.094 1425.34 304.002 1373.23 329.645C1352.63 339.781 1334.66 349.529 1320.21 357.361C1288.83 374.383 1269.9 384.655 1264.48 377.254C1258.89 369.622 1265.34 351.299 1284.18 321.241C1301.09 294.263 1326.4 260.293 1350.87 227.441C1374.19 196.129 1398.31 163.746 1416.06 136.332C1427.68 118.398 1439.3 99.8496 1445.7 85.6951C1452.39 70.8879 1452.84 62.2237 1447.13 58.4355C1437.49 52.0408 1414.08 58.6872 1373.47 79.3516C1336.41 98.2115 1288.64 126.717 1233.34 159.723C1139.68 215.624 1023.12 285.198 911.044 335.106C830.682 370.893 765.943 393.068 713.122 402.896C651.87 414.295 606.793 408.429 579.145 385.466C557.466 367.348 546.214 338.651 544.738 297.736C543.437 261.611 549.683 221.012 555.725 181.748C561.25 145.824 566.473 111.893 565.525 84.0783C565.018 69.1559 562.778 57.2538 558.677 47.698C554.095 37.016 547.307 29.4439 537.92 24.5465C527.189 18.9496 513.327 17.4096 496.713 19.9691C480.922 22.4008 462.208 28.6035 441.097 38.4067C402.206 56.4646 353.621 87.4484 296.695 130.501C215.62 191.82 118.161 276.7 0 388.977V389.855C118.34 277.391 215.919 192.392 297.088 131.004C353.98 87.9774 402.526 57.0149 441.374 38.9784C462.434 29.2007 481.088 23.0151 496.819 20.592C513.297 18.0537 527.031 19.5724 537.638 25.1054C555.179 34.2559 563.84 53.0006 564.898 84.0911C565.845 111.841 560.627 145.747 555.106 181.641C549.06 220.935 542.81 261.564 544.111 297.753C545.591 338.86 556.919 367.711 578.748 385.952C593.148 397.914 612.275 405.349 635.601 408.054C657.382 410.579 683.507 409.057 713.246 403.519C766.114 393.682 830.903 371.495 911.309 335.686C1023.42 285.761 1140 216.174 1233.68 160.264C1288.97 127.263 1336.72 98.7661 1373.76 79.9147C1414.15 59.3655 1437.35 52.7063 1446.78 58.9645C1458.81 66.9419 1438.87 99.9478 1415.53 135.978C1397.79 163.379 1373.68 195.749 1350.36 227.053C1299.37 295.509 1251.2 360.173 1263.97 377.625C1269.71 385.478 1287.76 375.688 1320.52 357.916C1334.96 350.088 1352.93 340.34 1373.51 330.213C1460.56 287.386 1622.58 207.664 1821.39 158.678C1857.54 149.77 1891.01 143.06 1920 137.945V137.296L1920 137.301Z" fill="url(#paint3_linear_164_164)"/>
</g>
<g opacity="0.21">
<path d="M1920 146.681C1890.59 152.014 1857.47 158.767 1821.7 167.572C1740.75 187.498 1658.9 213.41 1571.44 246.787C1497.57 274.985 1435.31 302.548 1385.29 324.697L1376.72 328.493C1356.52 337.431 1338.93 346.163 1324.79 353.176C1294.09 368.419 1275.55 377.616 1269.85 369.605C1256.37 350.655 1302.81 283.901 1347.71 219.348C1369.07 188.65 1391.15 156.903 1406.84 130.279C1424.92 99.6021 1439.62 73.2255 1436.4 61.1741C1435.74 58.6743 1434.3 56.793 1432.15 55.5729C1421.73 49.6773 1398.6 56.1488 1359.37 75.9302C1323.56 93.9923 1277.78 121.231 1224.78 152.769C1130.81 208.687 1013.85 278.283 899.785 327.056C820.578 360.923 756.57 381.664 704.102 390.465C643.631 400.61 598.72 394.228 570.615 371.49C548.8 353.71 536.73 325.895 533.717 286.461C531.059 251.659 535.573 212.736 539.938 175.093C543.962 140.428 547.759 107.682 545.609 81.0323C544.457 66.7327 541.692 55.3767 537.156 46.3157C532.092 36.1926 524.937 29.0982 515.285 24.636C504.363 19.5808 490.475 18.4461 474.01 21.2531C458.359 23.9236 439.949 30.2287 419.285 40.0021C381.235 57.996 334.025 88.4551 278.967 130.53C202.214 189.196 110.537 269.742 0 375.684V376.643C110.729 270.493 202.543 189.819 279.394 131.085C334.413 89.0353 381.581 58.6018 419.588 40.6292C461.798 20.6687 493.901 15.4983 515.004 25.2674C533.018 33.6031 542.528 51.3411 544.926 81.092C547.068 107.673 543.275 140.385 539.255 175.016C534.886 212.693 530.364 251.65 533.03 286.516C536.06 326.147 548.211 354.119 570.185 372.032C584.811 383.862 603.989 391.378 627.191 394.369C648.909 397.167 674.82 396.084 704.218 391.152C756.736 382.339 820.796 361.585 900.058 327.696C1014.17 278.906 1131.14 209.298 1225.14 153.371C1278.13 121.836 1323.9 94.6066 1359.69 76.553C1398.69 56.8826 1421.61 50.4068 1431.82 56.1787C1433.83 57.3177 1435.11 59.0113 1435.74 61.3576C1438.89 73.153 1424.25 99.3888 1406.25 129.929C1390.57 156.527 1368.5 188.262 1347.15 218.951C1324.61 251.356 1301.3 284.861 1285.87 311.89C1268.28 342.703 1263.01 361.171 1269.29 370.006C1275.34 378.499 1293.01 369.724 1325.1 353.799C1339.23 346.786 1356.82 338.058 1377 329.129L1385.57 325.332C1486.21 280.77 1638.3 213.431 1821.86 168.246C1857.57 159.458 1890.63 152.714 1920 147.39V146.686V146.681Z" fill="url(#paint4_linear_164_164)"/>
</g>
<g opacity="0.25">
<path d="M1920 156.062C1890.13 161.634 1857.4 168.417 1822.17 177.081C1656.48 217.821 1510.9 275.557 1414.56 313.763C1402.42 318.579 1390.95 323.127 1380.21 327.337C1360.61 335.025 1343.51 342.69 1329.77 348.855C1299.51 362.425 1281.24 370.611 1275.23 361.956C1260.81 341.193 1303.17 275.471 1344.15 211.917C1363.69 181.603 1383.89 150.256 1397.62 124.234C1414.26 92.6954 1425.76 69.5098 1422.09 58.333C1421.25 55.7734 1419.6 53.8878 1417.18 52.7189C1405.98 47.3225 1383.07 53.6574 1345.06 72.6581C1310.37 90.0079 1266.42 116.082 1215.54 146.276C1121.47 202.092 1004.4 271.559 888.525 319.014C810.445 350.992 747.157 370.317 695.049 378.098C635.332 387.014 590.596 380.095 562.086 357.528C540.113 340.135 527.219 313.247 522.671 275.322C518.66 241.868 521.464 204.613 524.177 168.587C526.694 135.146 529.075 103.557 525.726 78.0375C523.93 64.348 520.64 53.5252 515.665 44.9463C510.11 35.3734 502.588 28.7612 492.659 24.7298C481.549 20.2207 467.644 19.4827 451.324 22.5371C435.819 25.4422 417.707 31.854 397.491 41.5932C360.277 59.5232 314.445 89.4575 261.252 130.56C188.838 186.526 102.933 262.691 0 362.259V363.295C103.142 263.505 189.193 187.195 261.709 131.158C314.854 90.0846 360.649 60.1801 397.815 42.2715C439.1 22.3793 470.916 16.7098 492.378 25.4252C510.891 32.9418 521.254 49.6901 524.984 78.1356C528.32 103.578 525.943 135.129 523.43 168.532C520.717 204.592 517.909 241.885 521.929 275.412C526.502 313.541 539.486 340.596 561.621 358.116C576.444 369.848 595.665 377.462 618.744 380.743C640.384 383.819 666.091 383.179 695.151 378.84C747.319 371.051 810.662 351.709 888.798 319.71C1004.72 272.234 1121.82 202.753 1215.91 146.925C1266.78 116.738 1310.72 90.6691 1345.39 73.3321C1383.16 54.4424 1405.87 48.1031 1416.84 53.3972C1419.11 54.485 1420.59 56.1786 1421.37 58.5718C1424.95 69.4672 1413.51 92.5163 1396.95 123.893C1383.24 149.889 1363.04 181.219 1343.51 211.52C1323 243.34 1301.79 276.244 1287.94 303.17C1280.48 317.683 1275.69 329.346 1273.31 338.83C1270.62 349.554 1271.04 357.263 1274.61 362.395C1280.98 371.563 1298.42 363.743 1330.07 349.55C1343.8 343.394 1360.9 335.728 1380.48 328.05C1391.21 323.839 1402.69 319.287 1414.83 314.471C1511.15 276.273 1656.7 218.55 1822.34 177.819C1857.51 169.172 1890.17 162.402 1919.99 156.834V156.075L1920 156.062Z" fill="url(#paint5_linear_164_164)"/>
</g>
<g opacity="0.29">
<path d="M1920 165.426C1891.69 170.874 1858.14 177.866 1822.63 186.59C1676.99 222.364 1546.51 268.676 1451.24 302.488C1426.85 311.144 1403.82 319.321 1383.7 326.185C1364.88 332.61 1349.06 338.911 1335.11 344.469C1305.08 356.431 1286.95 363.649 1280.6 354.307C1265.29 331.804 1303.42 267.37 1340.31 205.057C1358.14 174.927 1376.58 143.772 1388.39 118.172C1403.2 86.1088 1411.9 65.8881 1407.83 55.4961C1406.79 52.864 1404.9 50.9657 1402.19 49.8565C1390.23 44.9549 1367.47 51.196 1330.57 69.4971C1296.89 86.2069 1254.65 111.206 1205.73 140.15C1111.75 195.766 994.786 264.981 877.257 310.964C713.877 374.89 607.991 385.551 553.549 343.557C504.137 305.44 506.479 229.352 508.548 162.214C509.542 129.955 510.481 99.4869 505.916 75.0727C503.467 61.9761 499.635 51.6738 494.208 43.5812C488.149 34.5502 480.239 28.4157 470.016 24.8237C447.991 17.081 416.256 23.2581 375.697 43.1802C339.324 61.0462 294.861 90.4516 243.541 130.586C175.488 183.8 95.36 255.536 0 348.68V349.798C95.5819 256.411 175.872 184.521 244.028 131.222C295.305 91.1256 339.721 61.7458 376.043 43.9055C416.401 24.0814 447.927 17.9171 469.747 25.5873C488.802 32.2849 500.045 48.0605 505.126 75.2306C509.679 99.5594 508.74 129.989 507.746 162.201C506.684 196.611 505.587 232.189 510.95 264.342C517.052 300.931 530.825 327.051 553.058 344.201C568.107 355.808 587.379 363.504 610.334 367.071C631.915 370.424 657.412 370.227 686.127 366.486C738.001 359.733 800.614 341.816 877.542 311.719C995.132 265.711 1112.13 196.478 1206.14 140.85C1255.04 111.914 1297.27 86.9236 1330.92 70.2266C1367.6 52.0321 1390.15 45.7995 1401.88 50.6073C1404.42 51.6439 1406.11 53.3418 1407.08 55.799C1411.32 66.6261 1399.83 91.5053 1387.67 117.848C1375.86 143.409 1357.43 174.547 1339.61 204.66C1321.18 235.794 1302.13 267.989 1289.94 294.698C1283.36 309.104 1279.27 320.772 1277.42 330.379C1275.34 341.24 1276.16 349.222 1279.93 354.767C1286.65 364.639 1305 357.331 1335.39 345.224C1349.34 339.67 1365.15 333.374 1383.95 326.953C1404.07 320.085 1427.11 311.907 1451.5 303.251C1546.76 269.444 1677.21 223.141 1822.81 187.375C1858.24 178.672 1891.73 171.693 1919.99 166.25V165.435L1920 165.426Z" fill="url(#paint6_linear_164_164)"/>
</g>
<g opacity="0.33">
<path d="M1920 174.79C1891.21 180.489 1858.12 187.507 1823.1 196.099C1699.89 226.332 1587.54 262.119 1497.27 290.872C1454.96 304.348 1418.43 315.985 1387.2 325.034C1369.31 330.221 1354.16 335.464 1340.79 340.092C1310.8 350.472 1292.7 356.738 1285.97 346.662C1269.85 322.512 1303.65 259.589 1336.33 198.735C1352.52 168.604 1369.25 137.446 1379.17 112.114C1389.92 84.6881 1398.4 63.0255 1393.65 52.6762C1392.4 49.9588 1390.23 48.0519 1387.21 47.0025C1374.49 42.6 1351.85 48.7771 1315.96 66.4511C1283.2 82.5807 1242.55 106.573 1195.48 134.357C1101.73 189.687 985.058 258.548 865.993 302.927C705.638 362.694 600.644 371.418 545.011 329.598C495.462 292.352 494.187 219.911 493.06 155.998C492.514 124.882 491.994 95.4939 486.187 72.1547C479.654 45.9018 467.319 30.8941 447.369 24.9303C424.986 18.237 393.54 24.9132 353.907 44.7671C318.379 62.5648 275.285 91.4497 225.83 130.607C162.18 181.005 87.8293 248.254 0 334.926V336.121C88.0683 249.189 162.586 181.773 226.359 131.273C275.767 92.1493 318.81 63.2985 354.287 45.5264C393.724 25.7707 424.96 19.1158 447.125 25.7408C466.756 31.6108 478.908 46.4223 485.359 72.3552C491.145 95.6005 491.661 124.942 492.207 156.007C492.783 188.74 493.38 222.59 500.062 253.344C507.669 288.355 522.206 313.52 544.499 330.276C567.607 347.647 599.155 356.35 639.573 356.35C696.9 356.35 772.07 338.838 866.287 303.721C985.421 259.316 1102.13 190.433 1195.9 135.086C1242.96 107.315 1283.6 83.3273 1316.33 67.2147C1352.01 49.6516 1374.44 43.483 1386.93 47.8087C1389.77 48.7942 1391.71 50.5006 1392.87 53.0346C1397.48 63.0511 1389.05 84.5644 1378.38 111.803C1368.48 137.087 1351.75 168.22 1335.58 198.33C1319.27 228.691 1302.41 260.084 1291.91 286.473C1280.06 316.25 1277.88 336.091 1285.26 347.14C1292.35 357.762 1310.69 351.414 1341.06 340.903C1354.42 336.279 1369.57 331.04 1387.43 325.857C1418.67 316.804 1455.21 305.163 1497.52 291.686C1587.78 262.938 1700.12 227.155 1823.3 196.93C1858.24 188.356 1891.25 181.355 1920 175.66V174.79H1920Z" fill="url(#paint7_linear_164_164)"/>
</g>
<g opacity="0.38">
<path d="M1920 184.133C1890.92 190.054 1858.56 197.033 1823.56 205.608C1725.61 229.617 1635 255.729 1555.05 278.765C1490.72 297.301 1435.17 313.311 1390.7 323.882C1373.9 327.875 1359.51 332.077 1346.81 335.78C1316.67 344.572 1298.48 349.879 1291.34 339.013C1274.47 313.324 1303.89 252.107 1332.34 192.903C1346.91 162.598 1361.96 131.26 1369.95 106.044L1370.36 104.764C1378.37 79.4796 1384.7 59.5063 1379.56 49.8566C1378.05 47.0069 1375.65 45.1427 1372.22 44.1445C1358.78 40.2368 1336.22 46.3841 1301.24 63.4822C1269.32 79.0828 1230.17 102.136 1184.84 128.828C1091.45 183.808 975.232 252.226 854.733 294.873C780.39 321.186 719.313 336.236 668.006 340.882C610.692 346.074 566.438 337.576 536.474 315.623C486.874 279.29 482.027 210.548 477.747 149.902C475.631 119.887 473.63 91.5395 466.556 69.2455C458.603 44.1829 445.312 30.1307 424.721 25.0158C401.988 19.3676 370.833 26.5388 332.122 46.3286C297.434 64.0623 255.718 92.4183 208.124 130.612C148.911 178.135 80.3413 240.832 0 320.977V322.257C80.5931 241.83 149.346 178.949 208.691 131.32C256.235 93.1648 297.903 64.843 332.531 47.1392C371.042 27.4517 401.988 20.3062 424.503 25.8989C444.757 30.9327 457.847 44.7929 465.694 69.527C472.734 91.7144 474.731 120.015 476.843 149.971C479.031 181.014 481.297 213.111 489.271 242.436C498.355 275.83 513.617 300.009 535.936 316.361C551.445 327.721 570.82 335.579 593.519 339.717C614.989 343.629 640.077 344.329 668.079 341.79C719.458 337.136 780.608 322.073 855.023 295.735C975.603 253.058 1091.87 184.615 1185.28 129.618C1230.6 102.934 1269.75 79.8934 1301.63 64.3055C1336.39 47.3098 1358.74 41.1796 1371.96 45.0233C1375.14 45.949 1377.37 47.6682 1378.76 50.2917C1383.72 59.6044 1377.44 79.4156 1369.49 104.5L1369.09 105.779C1361.12 130.932 1346.07 162.24 1331.52 192.52C1302.96 251.949 1273.43 313.405 1290.58 339.521C1298.09 350.945 1316.52 345.566 1347.06 336.659C1359.75 332.956 1374.13 328.762 1390.91 324.773C1435.39 314.198 1490.96 298.184 1555.29 279.648C1635.23 256.612 1725.84 230.504 1823.77 206.499C1858.68 197.946 1890.97 190.98 1920 185.067V184.141L1920 184.133Z" fill="url(#paint8_linear_164_164)"/>
</g>
<g opacity="0.42">
<path d="M1920 193.475C1891.04 199.554 1858.65 206.644 1824.03 215.116C1754.72 232.086 1687.07 249.999 1627.39 265.805C1534.66 290.364 1454.56 311.574 1394.21 322.73C1378.63 325.61 1365.1 328.792 1353.16 331.599C1322.69 338.762 1304.29 343.087 1296.71 331.369C1279.16 304.263 1304.21 244.936 1328.43 187.562C1341.97 155.504 1354.75 125.219 1360.73 99.9776L1361.25 97.7635C1368.47 67.2831 1373.69 45.2621 1357.23 41.299C1343.07 37.8905 1320.57 44.0249 1286.43 60.6068C1255.3 75.7297 1217.56 97.8915 1173.86 123.56C1080.95 178.126 965.316 246.036 843.465 286.84C771.448 310.956 709.385 324.97 659 328.502C602.513 332.456 558.417 323.43 527.932 301.669C478.387 266.295 470.029 201.312 462.656 143.973C458.931 115.015 455.415 87.6617 447.044 66.3872C437.641 42.4892 423.347 29.3756 402.069 25.1266C378.991 20.5151 348.126 28.1768 310.34 47.8985C276.497 65.5596 236.151 93.3951 190.426 130.62C135.693 175.17 72.9045 233.247 0 306.809V308.17C73.1691 234.309 136.154 176.036 191.031 131.358C236.71 94.1716 277.001 66.3744 310.788 48.7431C348.378 29.1239 379.025 21.492 401.89 26.0609C422.818 30.2416 436.885 43.1632 446.161 66.7328C454.49 87.8963 458.001 115.19 461.713 144.092C469.111 201.627 477.496 266.833 527.381 302.45C543.125 313.69 562.551 321.629 585.118 326.049C606.541 330.247 631.424 331.394 659.068 329.457C709.534 325.921 771.678 311.89 843.772 287.749C965.717 246.915 1081.4 178.979 1174.35 124.387C1218.04 98.7319 1255.77 76.5744 1286.86 61.4728C1320.79 44.9933 1343.08 38.8802 1357.01 42.2332C1364.25 43.978 1367.4 49.3404 1367.21 59.6256C1367.04 69.2241 1363.93 82.3462 1360.33 97.5417L1359.8 99.7557C1353.85 124.921 1341.08 155.167 1327.56 187.187C1303.24 244.791 1278.09 304.361 1295.91 331.893C1303.87 344.175 1322.5 339.794 1353.39 332.533C1365.32 329.73 1378.83 326.552 1394.39 323.677C1454.78 312.513 1534.89 291.298 1627.64 266.735C1687.32 250.934 1754.96 233.021 1824.26 216.055C1858.78 207.604 1891.1 200.527 1920 194.46V193.479L1920 193.475Z" fill="url(#paint9_linear_164_164)"/>
</g>
<g opacity="0.46">
<path d="M1920 202.805C1891.26 209.02 1858.76 216.251 1824.5 224.625C1787.8 233.601 1751.86 242.572 1717.11 251.249C1588.39 283.393 1477.21 311.152 1397.72 321.574C1383.51 323.438 1370.95 325.652 1359.87 327.602C1328.88 333.066 1310.17 336.36 1302.09 323.715C1283.96 295.33 1304.69 238.063 1324.74 182.682C1336.55 150.09 1347.69 119.307 1351.52 93.8858L1351.89 91.4542C1354.07 77.001 1355.96 64.523 1355.18 55.4024C1354.32 45.3901 1350.22 39.9979 1342.25 38.4323C1327.4 35.5186 1304.95 41.6659 1271.59 57.7785C1241.18 72.4578 1204.78 93.7877 1162.62 118.488C1070.28 172.593 955.354 239.932 832.213 278.782C761.523 301.084 700.22 313.639 650.01 316.101C594.368 318.831 550.426 309.267 519.403 287.689C470.025 253.34 458.253 192.148 447.863 138.158C442.487 110.207 437.406 83.8053 427.691 63.5163C416.785 40.7445 401.451 28.5736 379.426 25.2078C356.002 21.6286 325.431 29.7809 288.572 49.43C255.573 67.0229 216.597 94.3294 172.736 130.595C122.534 172.098 65.5317 225.466 0 292.382V293.828C65.8091 226.592 123.021 173.011 173.372 131.384C217.186 95.1613 256.102 67.8932 289.041 50.3344C325.709 30.7877 356.062 22.6695 379.273 26.2188C426.688 33.4624 436.041 82.0733 446.869 138.359C457.293 192.537 469.107 253.945 518.822 288.53C534.805 299.647 554.283 307.671 576.717 312.376C598.101 316.86 622.776 318.46 650.052 317.12C700.348 314.655 761.737 302.087 832.508 279.759C955.75 240.874 1070.73 173.506 1163.12 119.375C1245.3 71.2249 1310.21 33.1937 1342.05 39.4391C1358.24 42.6172 1355.31 61.989 1350.88 91.3091L1350.51 93.7407C1346.7 119.059 1335.56 149.796 1323.78 182.341C1303.65 237.956 1282.83 295.462 1301.24 324.27C1309.68 337.486 1328.64 334.146 1360.04 328.609C1371.11 326.659 1383.65 324.445 1397.85 322.585C1477.4 312.155 1588.6 284.387 1717.35 252.239C1752.1 243.562 1788.04 234.586 1824.73 225.615C1858.9 217.262 1891.32 210.048 1920 203.846V202.809L1920 202.805Z" fill="url(#paint10_linear_164_164)"/>
</g>
<g opacity="0.5">
<path d="M1920 212.122C1891.04 218.576 1859.17 225.786 1824.96 234.134C1659.72 274.49 1503.63 312.607 1401.23 320.426C1388.51 321.399 1377.04 322.717 1366.93 323.882C1335.22 327.533 1316.08 329.739 1307.46 316.071C1288.83 286.571 1305.36 231.519 1321.34 178.275C1331.34 144.979 1340.78 113.53 1342.28 87.7938L1342.4 85.7888C1343.21 71.9756 1343.91 60.0436 1342.2 51.3922C1340.32 41.9047 1335.57 36.8836 1327.25 35.5825C1311.74 33.1637 1289.31 39.3365 1256.65 55.0183C1226.93 69.2965 1191.79 89.8372 1151.1 113.624C1059.41 167.231 945.297 233.946 820.937 270.736C751.603 291.247 691.063 302.343 641.003 303.716C586.223 305.218 542.434 295.125 510.848 273.718C461.777 240.456 446.703 183.104 433.404 132.501C426.308 105.506 419.61 80.0041 408.491 60.6707C396.028 38.9953 379.588 27.7544 356.757 25.3015C332.988 22.7504 302.716 31.3848 266.778 50.9656C234.624 68.486 197.022 95.2721 155.021 130.573C109.44 168.903 58.2315 217.467 0 277.664V279.196C58.5216 218.657 109.952 169.863 155.716 131.396C197.666 96.1381 235.209 69.3946 267.298 51.9084C303.044 32.4299 333.107 23.8382 356.655 26.368C405.811 31.6492 418.125 78.511 432.388 132.779C445.734 183.561 460.86 241.122 510.263 274.605C526.49 285.603 546.022 293.713 568.316 298.7C589.666 303.478 614.135 305.525 641.041 304.787C691.196 303.409 751.825 292.301 821.248 271.76C945.732 234.932 1059.91 168.182 1151.65 114.546C1231.07 68.1149 1293.79 31.4359 1327.1 36.6362C1344.07 39.2853 1342.99 57.7613 1341.35 85.7248L1341.23 87.7298C1339.73 113.343 1330.31 144.732 1320.33 177.968C1304.27 231.438 1287.68 286.729 1306.56 316.638C1315.55 330.869 1334.93 328.638 1367.05 324.935C1377.16 323.771 1388.61 322.453 1401.31 321.484C1503.8 313.656 1659.93 275.531 1825.22 235.166C1859.32 226.839 1891.11 219.647 1920 213.209V212.117L1920 212.122Z" fill="url(#paint11_linear_164_164)"/>
</g>
<g opacity="0.54">
<path d="M1920 221.426C1891.47 227.978 1859.34 235.375 1825.43 243.643C1669.61 281.644 1510.81 317.107 1404.74 319.274C1393.64 319.501 1383.42 320.034 1374.39 320.503C1341.76 322.197 1322.07 323.221 1312.83 308.426C1293.82 277.993 1306.31 225.295 1318.39 174.334C1326.49 140.167 1334.14 107.895 1333.06 81.6977L1333.02 80.7336C1332.48 67.3982 1332 55.8843 1329.35 47.5869C1326.45 38.5047 1321.02 33.7908 1312.27 32.7413C1277.2 28.5479 1216.38 64.028 1139.39 108.949C1048.43 162.018 935.223 228.068 809.69 262.703C741.739 281.452 681.963 291.089 632.026 291.358C578.133 291.639 534.498 281.017 502.319 259.764C453.713 227.667 435.494 174.193 419.418 127.011C401.446 74.2664 385.924 28.7142 334.114 25.4166C310.003 23.8809 280.026 32.9973 245.013 52.5099C213.705 69.9578 177.472 96.2191 137.331 130.56C96.4181 165.558 51.0123 209.204 0 262.614V264.231C51.3152 210.462 96.9557 166.569 138.061 131.401C178.146 97.1065 214.31 70.8877 245.559 53.4783C280.384 34.0723 310.153 25.0028 334.046 26.5258C385.114 29.7722 400.521 75.0001 418.364 127.365C434.496 174.717 452.783 228.383 501.709 260.694C533.653 281.789 576.772 292.48 629.909 292.476C630.613 292.476 631.326 292.476 632.034 292.471C682.074 292.207 741.943 282.553 809.988 263.778C935.659 229.104 1048.93 163.016 1139.95 109.913C1216.76 65.0988 1277.43 29.6954 1312.14 33.8462C1330.07 35.992 1330.8 53.8067 1331.91 80.772L1331.95 81.7361C1333.02 107.78 1325.39 139.98 1317.31 174.069C1305.17 225.257 1292.63 278.185 1311.88 309.019C1316.41 316.267 1323.45 320.187 1334.7 321.732C1345.05 323.152 1358.02 322.474 1374.46 321.621C1383.47 321.152 1393.69 320.623 1404.77 320.396C1510.94 318.225 1669.82 282.749 1825.69 244.731C1859.5 236.489 1891.54 229.113 1920 222.573V221.426Z" fill="url(#paint12_linear_164_164)"/>
</g>
<g opacity="0.58">
<path d="M1920 230.721C1913.98 232.146 1907.86 233.592 1901.65 235.06C1877.51 240.763 1852.54 246.663 1825.9 253.152C1627.66 301.434 1498.86 321.471 1408.27 318.127C1398.92 317.781 1390.11 317.666 1382.33 317.56C1349.7 317.124 1328.14 316.839 1318.2 300.773C1298.93 269.606 1307.61 219.378 1315.99 170.806C1322.07 135.603 1327.82 102.354 1323.83 75.576C1320.02 50.0484 1317.27 31.6066 1297.28 29.8789C1260.85 26.7306 1201.98 61.0162 1127.45 104.418C1037.29 156.924 925.086 222.266 798.43 254.645C660.305 289.959 557.803 286.977 493.777 245.784C445.828 214.937 424.657 165.375 405.973 121.644C384.196 70.6744 365.393 26.6495 311.454 25.502C287.002 24.9858 257.323 34.5757 223.232 54.0158C192.764 71.3911 157.909 97.1278 119.633 130.513C83.4901 162.043 43.8912 200.642 0 247.184V248.89C44.2027 201.973 84.0533 163.105 120.405 131.401C158.626 98.0663 193.417 72.3723 223.817 55.0396C257.719 35.7062 287.202 26.1632 311.437 26.6794C364.621 27.8099 383.287 71.5106 404.907 122.109C423.654 165.993 444.902 215.731 493.154 246.774C527.834 269.085 573.7 280.245 630.319 280.245C678.699 280.245 734.933 272.093 798.724 255.784C925.534 223.367 1037.82 157.978 1128.04 105.434C1202.39 62.1339 1261.12 27.9293 1297.18 31.0477C1316.25 32.6944 1318.95 50.7566 1322.67 75.7509C1326.63 102.337 1320.9 135.496 1314.84 170.605C1306.41 219.395 1297.7 269.849 1317.21 301.391C1327.48 317.999 1349.3 318.289 1382.31 318.728C1390.08 318.831 1398.89 318.95 1408.23 319.296C1457.51 321.117 1518.76 315.815 1595.49 303.089C1659.38 292.497 1734.83 276.534 1826.18 254.287C1852.82 247.798 1877.78 241.902 1901.92 236.199C1908.04 234.753 1914.07 233.328 1920 231.924V230.717V230.721Z" fill="url(#paint13_linear_164_164)"/>
</g>
<g opacity="0.62">
<path d="M1920 240.004C1904.56 243.775 1888.37 247.679 1871.74 251.689C1857.09 255.221 1841.93 258.877 1826.36 262.661C1639.65 308.072 1504.05 325.84 1411.79 316.984C1404.36 316.271 1397.49 315.717 1390.84 315.184C1356.79 312.445 1334.3 310.636 1323.58 293.133C1304.16 261.458 1309.3 213.773 1314.27 167.662C1318.19 131.264 1321.89 96.8891 1314.59 69.4631C1311.27 57.0192 1308.37 46.9216 1303.77 39.6097C1298.7 31.5683 1291.87 27.5711 1282.3 27.0336C1244.56 24.9219 1187.53 58.0772 1115.32 100.054C1026.04 151.967 914.91 216.575 787.179 246.604C652.864 278.18 551.279 273.206 485.24 231.818C438.174 202.318 414.293 156.698 393.225 116.449C367.398 67.1082 345.105 24.4868 288.798 25.6045C264.004 26.0908 234.62 36.1585 201.451 55.5261C171.827 72.8246 138.342 98.0366 101.931 130.471C70.6688 158.319 36.8896 191.726 0 231.323V233.119C37.2096 193.13 71.2576 159.437 102.746 131.392C139.102 99.0135 172.518 73.8485 202.069 56.5926C235.055 37.3317 264.243 27.3194 288.828 26.8374C344.375 25.741 366.511 68.0468 392.145 117.024C413.286 157.411 437.244 203.189 484.591 232.863C518.251 253.958 561.796 265.732 614.012 267.853C619.78 268.087 625.656 268.202 631.65 268.202C677.474 268.202 729.788 261.36 787.456 247.802C915.362 217.736 1026.57 153.076 1115.93 101.121C1187.96 59.246 1244.86 26.1761 1282.22 28.2622C1301.66 29.35 1306.73 44.7502 1313.4 69.783C1320.64 96.9872 1316.95 131.256 1313.05 167.534C1308.06 213.849 1302.89 261.744 1322.53 293.777C1333.59 311.809 1356.32 313.639 1390.73 316.408C1397.38 316.941 1404.25 317.496 1411.67 318.208C1461.94 323.033 1523.21 320.153 1599 309.407C1664.15 300.167 1738.62 285.271 1826.65 263.86C1842.21 260.076 1857.37 256.42 1872.03 252.887C1888.55 248.903 1904.64 245.021 1920 241.271V240.008L1920 240.004Z" fill="url(#paint14_linear_164_164)"/>
</g>
<g opacity="0.67">
<path d="M1920 249.274C1890.27 256.769 1858.21 264.551 1826.83 272.174C1644.58 316.433 1509.98 330.72 1415.32 315.84C1410.03 315.009 1404.99 314.258 1400.12 313.533C1364.28 308.192 1340.6 304.664 1328.94 285.484C1309.52 253.532 1311.44 208.427 1313.3 164.812C1314.9 127.075 1316.42 91.4328 1305.33 63.337C1296.15 40.0746 1288.55 24.7811 1267.3 24.1838C1228.3 23.096 1173.01 55.189 1103.01 95.831C1014.65 147.134 904.683 210.978 775.927 238.558C645.611 266.47 544.939 259.504 476.702 217.851C430.784 189.819 404.514 148.166 381.337 111.419C351.151 63.5546 325.082 22.2172 266.146 25.7111C241.011 27.1999 211.917 37.7411 179.673 57.0362C150.895 74.2579 118.784 98.9494 84.2324 130.428C57.9796 154.347 30.0329 182.388 0.00415039 214.976V216.861C30.3615 183.868 58.5898 155.521 85.09 131.379C158.046 64.9112 218.991 29.7936 266.223 26.9909C324.403 23.5397 350.293 64.5827 380.262 112.106C403.511 148.972 429.867 190.762 476.04 218.947C510.421 239.936 553.813 252.247 605.009 255.549C614.438 256.159 624.136 256.462 634.112 256.462C676.851 256.462 724.505 250.887 776.196 239.812C905.148 212.19 1015.21 148.29 1103.65 96.9401C1173.48 56.4005 1228.63 24.3843 1267.27 25.4636C1287.73 26.0395 1295.16 41.0174 1304.15 63.8105C1315.14 91.6546 1313.63 127.165 1312.03 164.761C1310.17 208.572 1308.24 253.873 1327.86 286.154C1339.83 305.845 1363.74 309.407 1399.94 314.8C1404.81 315.525 1409.84 316.276 1415.13 317.107C1509.96 332.009 1644.73 317.717 1827.14 273.42C1858.41 265.826 1890.36 258.071 1920 250.597V249.278L1920 249.274Z" fill="url(#paint15_linear_164_164)"/>
</g>
<g opacity="0.71">
<path d="M1920 258.527C1893.83 265.327 1863.41 272.925 1827.3 281.678C1648.38 325.064 1514.77 335.865 1418.85 314.697C1416.02 314.074 1413.25 313.469 1410.55 312.876C1372.34 304.536 1347.1 299.024 1334.32 277.835C1315.03 245.853 1314.08 203.312 1313.16 162.176C1312.29 122.958 1311.46 85.9127 1296.07 57.2069C1285.19 36.9136 1275.06 21.3854 1252.31 21.3342C1252.25 21.3342 1252.19 21.3342 1252.13 21.3342C1211.93 21.3342 1158.34 52.4119 1090.52 91.7442C1003.15 142.416 894.409 205.48 764.672 230.512C640.35 254.5 537.818 245.294 468.16 203.88C423.706 177.452 395.447 139.783 370.513 106.556C335.573 59.9883 305.404 19.7686 243.482 25.8135C218.005 28.3006 189.201 39.3068 157.875 58.5336C129.937 75.6786 99.2 99.8496 66.5131 130.377C45.4315 150.06 23.3344 172.55 0 198.087V200.062C23.6715 174.108 46.0672 151.289 67.4219 131.35C136.461 66.8736 195.738 31.8115 243.614 27.136C304.789 21.1636 334.754 61.106 369.455 107.353C394.462 140.684 422.805 178.463 467.486 205.023C502.652 225.926 545.89 238.788 596.002 243.246C645.815 247.679 702.648 243.831 764.928 231.813C894.886 206.734 1003.73 143.61 1091.19 92.8918C1158.84 53.6576 1212.29 22.6609 1252.13 22.6609C1252.19 22.6609 1252.26 22.6609 1252.31 22.6609C1274.33 22.7121 1284.24 37.9374 1294.9 57.834C1310.14 86.2625 1310.96 123.15 1311.83 162.201C1312.75 203.513 1313.71 246.232 1333.18 278.522C1346.26 300.201 1371.72 305.76 1410.27 314.177C1412.97 314.765 1415.74 315.371 1418.57 315.994C1469.34 327.197 1532.37 329.355 1605.91 322.402C1670.16 316.327 1744.75 303.06 1827.61 282.967C1863.57 274.247 1893.9 266.679 1920 259.896V258.518V258.527Z" fill="url(#paint16_linear_164_164)"/>
</g>
<g opacity="0.75">
<path d="M1920 267.771C1892.31 275.198 1861.45 283.031 1827.76 291.187C1651.34 333.898 1518.75 341.219 1422.38 313.562C1381.14 301.724 1353.89 293.905 1339.69 270.19C1320.66 238.426 1317.21 198.406 1313.87 159.705C1310.34 118.859 1307.01 80.2729 1286.79 51.0807C1272.24 30.0751 1259.47 18.0109 1237.32 18.4844C1195.93 19.3717 1143.83 49.5621 1077.87 87.7852C991.535 137.812 884.096 200.07 753.421 222.467C633.749 242.977 532.156 231.719 459.618 189.913C417.139 165.213 387.435 131.61 361.229 101.965C341.167 79.2703 322.219 57.8338 300.382 43.4617C276.062 27.4515 250.782 21.8801 220.821 25.9157C194.995 29.3968 166.485 40.8723 136.081 60.0222C108.983 77.0904 79.6203 100.737 48.7979 130.313C33.0667 145.41 16.832 162.146 0 180.639V182.695C17.1776 163.779 33.728 146.698 49.7536 131.315C114.871 68.823 172.489 33.8249 221.005 27.2894C285.666 18.5782 320.201 57.6461 360.192 102.887C386.47 132.612 416.252 166.301 458.927 191.116C495.036 211.93 538.133 225.32 587.017 230.917C636.864 236.625 692.928 234.241 753.651 223.836C884.57 201.397 992.132 139.071 1078.56 88.9883C1144.35 50.8632 1196.31 20.7539 1237.35 19.8708C1237.76 19.8623 1238.16 19.858 1238.56 19.858C1259.37 19.858 1271.65 31.6449 1285.66 51.8742C1305.67 80.7677 1308.98 119.17 1312.49 159.829C1315.84 198.688 1319.31 238.869 1338.5 270.907C1345.19 282.075 1355.31 290.543 1370.35 297.556C1384.36 304.096 1401.8 309.1 1422 314.897C1459.72 325.725 1503.96 331.164 1554 331.164C1571.7 331.164 1590.13 330.481 1609.25 329.12C1672.97 324.577 1746.59 312.27 1828.08 292.54C1861.64 284.417 1892.38 276.61 1920 269.209V267.775L1920 267.771Z" fill="url(#paint17_linear_164_164)"/>
</g>
<g opacity="0.79">
<path d="M1920 276.994C1891.32 284.929 1860.27 292.958 1828.23 300.696C1653.71 342.878 1522.11 346.717 1425.92 312.428C1387.94 298.887 1359.91 287.382 1345.06 262.541C1326.53 231.254 1320.93 193.752 1315.52 157.491C1309.15 114.806 1303.13 74.4882 1277.51 44.9548C1261.6 26.6068 1246.12 14.6024 1222.34 15.6347C1202.81 16.4837 1180.24 23.2196 1151.3 36.8324C1125.2 49.1142 1095.98 66.033 1065.05 83.9459C979.815 133.316 873.732 194.755 742.17 214.417C625.536 231.847 527.595 218.904 451.076 175.942C410.906 153.213 380.369 123.62 353.425 97.5117C330.411 75.2092 308.672 54.1437 284.356 40.4371C257.297 25.182 229.905 20.6003 198.157 26.0224C171.985 30.4931 143.761 42.4294 114.274 61.5111C88.0172 78.4982 60.0236 101.628 31.0743 130.257C20.894 140.321 10.5473 151.105 -0.00415039 162.645V164.778C10.8972 152.82 21.5809 141.665 32.0812 131.281C93.2823 70.7683 149.24 35.8299 198.4 27.4387C266.965 15.7286 306.569 54.1096 352.431 98.5483C379.435 124.716 410.044 154.377 450.372 177.2C487.454 198.018 530.394 211.964 578.005 218.644C627.857 225.64 683.162 224.698 742.383 215.846C874.219 196.141 980.429 134.626 1065.77 85.1958C1129.72 48.1628 1180.22 18.911 1222.4 17.0724C1245.63 16.0613 1260.79 27.8653 1276.43 45.8976C1301.78 75.1153 1307.76 115.233 1314.1 157.705C1319.54 194.106 1325.15 231.745 1343.83 263.279C1358.93 288.534 1387.18 300.142 1425.45 313.784C1451.85 323.199 1481.55 329.803 1513.73 333.416C1533.84 335.677 1555.29 336.808 1577.82 336.808C1589.12 336.808 1600.7 336.522 1612.5 335.95C1675.55 332.9 1748.25 321.51 1828.57 302.095C1860.48 294.382 1891.41 286.392 1920.01 278.487V276.994H1920Z" fill="url(#paint18_linear_164_164)"/>
</g>
<g opacity="0.83">
<path d="M1920 286.209C1890.68 294.583 1859.75 302.714 1828.7 310.209C1655.59 351.978 1525 352.336 1429.47 311.301C1390.74 294.668 1365.39 280.109 1350.43 254.897C1332.44 224.352 1325.08 189.264 1317.96 155.337C1308.58 110.664 1299.73 68.469 1268.22 38.8332C1258.01 29.2262 1249 22.8059 1239.88 18.6295C1229.66 13.9498 1219.02 12.0386 1207.35 12.7851C1187.33 14.0692 1164.7 20.9204 1136.14 34.3497C1110.42 46.4437 1082.08 62.855 1052.08 80.2303C967.983 128.931 863.326 189.538 730.923 206.375C619.366 220.56 522.338 205.62 442.534 161.975C405.244 141.443 376.004 116.977 347.729 93.3183C321.369 71.2632 296.469 50.4282 269.329 37.3145C239.134 22.7249 209.318 19.1713 175.501 26.1249C148.979 31.5811 121.045 43.9823 92.4756 62.9915C67.0548 79.9018 40.4351 102.512 13.3546 130.189C8.93002 134.711 4.47988 139.387 0.00415039 144.199V146.391C4.83402 141.174 9.63828 136.115 14.417 131.234C71.6799 72.7008 125.977 37.8307 175.795 27.5881C248.887 12.559 294.246 50.5135 346.773 94.4659C373.785 117.067 404.399 142.684 441.818 163.285C480.013 184.175 522.799 198.675 568.99 206.38C618.863 214.698 673.408 215.193 731.11 207.856C863.812 190.984 968.614 130.292 1052.83 81.5229C1112.57 46.9258 1164.16 17.0469 1207.45 14.274C1229.06 12.8918 1246.37 20.3189 1267.21 39.9211C1298.38 69.2326 1307.18 111.206 1316.51 155.64C1323.65 189.687 1331.03 224.898 1349.16 255.656C1356.49 268.019 1366.49 278.227 1380.62 287.787C1392.42 295.769 1406.86 303.209 1428.88 312.671C1455.28 324.01 1484.99 332.281 1517.18 337.26C1542.42 341.159 1569.78 343.126 1598.72 343.126C1604.29 343.126 1609.93 343.053 1615.62 342.908C1677.94 341.308 1749.76 330.793 1829.05 311.66C1859.98 304.199 1890.78 296.097 1920 287.762V286.209H1920Z" fill="url(#paint19_linear_164_164)"/>
</g>
<g opacity="0.88">
<path d="M1920 295.415C1890.25 304.19 1859.84 312.325 1829.16 319.718C1749.23 338.971 1678.48 348.603 1616.14 348.603C1544.29 348.603 1483.61 335.801 1433 310.175C1392.39 289.613 1370.03 271.38 1355.8 247.252C1338.49 217.731 1329.74 185.041 1321.27 153.43C1308.71 106.534 1296.84 62.2406 1258.93 32.72C1236.2 15.0247 1215.67 7.99868 1192.35 9.9397C1147.66 13.6596 1097.28 42.8389 1038.95 76.6255C956.041 124.648 852.864 184.414 719.671 198.33C613.594 209.413 517.474 192.481 433.984 148.004C400.282 129.955 372.023 109.367 344.691 89.4619C314.496 67.4622 285.973 46.6869 255.552 34.0766C221.705 20.0501 189.065 17.5545 152.832 26.2357C125.956 32.6731 98.3083 45.5393 70.6517 64.476C47.4965 80.3284 23.7483 100.852 0 125.522V127.753C52.2197 73.2213 103.74 39.5797 153.195 27.7331C231.578 8.96279 283.58 46.8447 343.795 90.7075C371.166 110.647 399.471 131.264 433.267 149.365C472.781 170.413 515.409 185.472 559.97 194.115C609.869 203.799 663.659 205.731 719.838 199.861C853.359 185.911 956.693 126.055 1039.72 77.9608C1097.89 44.2638 1148.13 15.1655 1192.49 11.4755C1215.39 9.56856 1235.59 16.4965 1257.99 33.9358C1295.49 63.1365 1307.29 107.187 1319.78 153.827C1328.28 185.536 1337.06 218.329 1354.48 248.033C1362.07 260.916 1372.28 272.327 1385.68 282.924C1397.71 292.437 1412.53 301.537 1432.31 311.553C1458.62 324.871 1488.28 334.85 1520.48 341.206C1549.91 347.016 1582.25 349.955 1616.65 349.955C1617.3 349.955 1617.95 349.955 1618.59 349.955C1680.22 349.759 1751.18 340.088 1829.52 321.22C1860.07 313.861 1890.36 305.76 1920 297.027V295.415H1920Z" fill="url(#paint20_linear_164_164)"/>
</g>
<g opacity="0.92">
<path d="M1920 304.595C1889.78 313.793 1859.52 322.039 1829.63 329.227C1660.74 369.831 1528.48 363.043 1436.55 309.053C1400.47 287.864 1376.52 265.796 1361.18 239.603C1344.72 211.405 1334.95 181.151 1325.51 151.89C1309.56 102.486 1294.49 55.8203 1249.65 26.6111C1225.32 10.7673 1202.36 4.56453 1177.38 7.08999C1131.64 11.71 1082.54 40.1727 1025.68 73.1274C944.008 120.467 842.364 179.38 708.437 190.28C606.899 198.543 514.334 180.144 425.451 134.029C396.245 118.82 370.253 102.174 345.122 86.0832C310.468 63.8915 277.734 42.9285 243.443 30.6937C205.269 17.0724 169.276 15.6859 130.18 26.3381C102.95 33.7566 75.584 47.0793 48.8448 65.9477C32.5419 77.4403 16.192 91.2023 0 107.029V109.166C42.8544 66.8777 86.1867 39.9722 130.59 27.8824C215.253 4.82476 275.034 43.1077 344.256 87.4355C369.421 103.548 395.439 120.211 424.712 135.453C466.411 157.086 507.703 172.273 550.946 181.871C600.883 192.959 653.914 196.325 708.561 191.875C768.337 187.008 826.637 172.367 886.788 147.117C939.102 125.155 985.519 98.2497 1026.47 74.5138C1083.17 41.6487 1132.14 13.2671 1177.53 8.6812C1202.13 6.19414 1224.77 12.3201 1248.78 27.9549C1293.15 56.8527 1308.13 103.258 1323.99 152.385C1333.46 181.726 1343.26 212.07 1359.81 240.418C1375.3 266.858 1399.43 289.105 1435.75 310.44C1461.87 325.776 1491.43 337.486 1523.62 345.237C1553.46 352.425 1586.37 356.406 1621.44 357.08C1625 357.148 1628.58 357.182 1632.2 357.182C1690.63 357.182 1757.11 348.313 1830.01 330.788C1859.78 323.63 1889.92 315.422 1920.01 306.272V304.599L1920 304.595Z" fill="url(#paint21_linear_164_164)"/>
</g>
<g opacity="0.96">
<path d="M1920 313.746C1889.37 323.361 1859.26 331.736 1830.1 338.732C1661.75 379.126 1530.53 368.764 1440.09 307.931C1407.68 286.136 1383.62 261.283 1366.55 231.95C1351.12 205.416 1340.74 177.67 1330.7 150.837C1311.15 98.5783 1292.69 49.2209 1240.34 20.5023C1227.18 13.2843 1214.47 8.47228 1201.47 5.79324C1188.66 3.1526 1175.88 2.64495 1162.38 4.23616C1115.64 9.74354 1067.72 37.5407 1012.25 69.7318C931.844 116.38 831.787 174.436 697.186 182.23C599.625 187.882 513.182 168.707 416.9 120.058C393.357 108.138 371.294 95.5537 349.961 83.3829C269.683 37.5961 200.354 -1.94951 107.507 26.4449C79.9061 34.7976 52.8171 48.564 26.9867 67.3513C17.9115 73.9551 8.90453 81.2457 0 89.1804V91.0787C34.1675 60.4234 70.0501 39.5116 107.985 28.0275C200.158 -0.162068 269.201 39.2215 349.146 84.8248C370.5 97.0042 392.58 109.602 416.158 121.538C459.93 143.657 501.069 159.386 541.918 169.633C592.602 182.345 643.422 187.008 697.28 183.885C757.397 180.404 815.535 166.855 875.008 142.462C926.801 121.222 972.634 94.628 1013.07 71.1651C1068.39 39.0679 1116.17 11.3475 1162.57 5.87856C1189.35 2.72174 1213.82 7.83238 1239.56 21.9528C1291.37 50.377 1309.73 99.4571 1329.16 151.417C1339.23 178.314 1349.63 206.124 1365.13 232.782C1382.34 262.332 1406.56 287.365 1439.18 309.301C1465.01 326.672 1494.42 340.131 1526.59 349.294C1556.27 357.749 1589.09 362.775 1624.12 364.225C1631.31 364.524 1638.63 364.673 1646.07 364.673C1701.17 364.673 1763.08 356.508 1830.48 340.336C1859.52 333.365 1889.5 325.038 1920 315.478V313.746Z" fill="url(#paint22_linear_164_164)"/>
</g>
<path d="M1920 322.884C1707.86 391.523 1547.72 386.165 1443.64 306.818C1383.46 260.946 1359.82 204.767 1336.96 150.44C1325.03 122.097 1313.76 95.3279 1297.82 71.8821C1279.88 45.4884 1258.67 27.23 1231.05 14.4108C1194.59 -2.51238 1158.24 -4.47473 1116.66 8.23789C1079.09 19.7219 1040.03 42.4169 998.677 66.4472C915.469 114.794 821.163 169.594 685.948 174.193C548.476 178.877 448.99 127.481 361.225 82.1418C315.042 58.2864 271.42 35.7492 226.731 23.5485C176.755 9.90163 131.674 10.8572 84.8469 26.556C54.9035 36.5896 26.5429 52.105 0 72.923V75.0773C26.6411 53.982 55.1253 38.3216 85.3845 28.1771C187.055 -5.9081 267.405 35.5999 360.444 83.6604C444.638 127.152 539.58 176.202 668.527 176.198C674.283 176.198 680.115 176.1 686.007 175.899C746.445 173.843 804.382 161.416 863.134 137.911C914.377 117.409 959.616 91.1174 999.531 67.9275C1084.57 18.5146 1151.74 -20.5191 1230.34 15.9636C1290.21 43.7522 1312.15 95.8995 1335.39 151.11C1346.63 177.828 1358.26 205.45 1374.69 232.287C1393.32 262.721 1415.54 287.549 1442.61 308.183C1476.26 333.839 1516.28 352.029 1561.55 362.255C1591.45 369.008 1624.16 372.403 1659.17 372.403C1671.17 372.403 1683.45 372.002 1695.97 371.205C1738.2 368.509 1784.26 361.188 1832.87 349.448C1860.64 342.742 1889.82 334.445 1920 324.684V322.888V322.884Z" fill="url(#paint23_linear_164_164)"/>
</g>
<defs>
<linearGradient id="paint0_linear_164_164" x1="1985.21" y1="232.585" x2="-40.2133" y2="232.585" gradientUnits="userSpaceOnUse">
<stop stop-color="#0B0328"/>
<stop offset="1" stop-color="#00FAAB"/>
</linearGradient>
<linearGradient id="paint1_linear_164_164" x1="1984.08" y1="226.374" x2="-44.5526" y2="226.374" gradientUnits="userSpaceOnUse">
<stop stop-color="#150632"/>
<stop offset="1" stop-color="#00F5AE"/>
</linearGradient>
<linearGradient id="paint2_linear_164_164" x1="1982.95" y1="220.184" x2="-48.9088" y2="220.184" gradientUnits="userSpaceOnUse">
<stop stop-color="#200A3B"/>
<stop offset="1" stop-color="#00F0B2"/>
</linearGradient>
<linearGradient id="paint3_linear_164_164" x1="1981.82" y1="213.999" x2="-53.2481" y2="213.999" gradientUnits="userSpaceOnUse">
<stop stop-color="#2B0D44"/>
<stop offset="1" stop-color="#00EBB6"/>
</linearGradient>
<linearGradient id="paint4_linear_164_164" x1="1980.68" y1="207.817" x2="-57.5872" y2="207.817" gradientUnits="userSpaceOnUse">
<stop stop-color="#35104E"/>
<stop offset="1" stop-color="#00E6B9"/>
</linearGradient>
<linearGradient id="paint5_linear_164_164" x1="1979.56" y1="201.67" x2="-61.9221" y2="201.67" gradientUnits="userSpaceOnUse">
<stop stop-color="#401357"/>
<stop offset="1" stop-color="#00E1BD"/>
</linearGradient>
<linearGradient id="paint6_linear_164_164" x1="1978.43" y1="195.514" x2="-66.2571" y2="195.514" gradientUnits="userSpaceOnUse">
<stop stop-color="#4A1660"/>
<stop offset="1" stop-color="#00DCC0"/>
</linearGradient>
<linearGradient id="paint7_linear_164_164" x1="1977.3" y1="189.38" x2="-70.6134" y2="189.38" gradientUnits="userSpaceOnUse">
<stop stop-color="#551A6A"/>
<stop offset="1" stop-color="#00D7C4"/>
</linearGradient>
<linearGradient id="paint8_linear_164_164" x1="1976.17" y1="184.576" x2="-74.9483" y2="184.576" gradientUnits="userSpaceOnUse">
<stop stop-color="#601D73"/>
<stop offset="1" stop-color="#00D2C8"/>
</linearGradient>
<linearGradient id="paint9_linear_164_164" x1="1975.04" y1="181.71" x2="-79.3003" y2="181.71" gradientUnits="userSpaceOnUse">
<stop stop-color="#6A207C"/>
<stop offset="1" stop-color="#00CDCB"/>
</linearGradient>
<linearGradient id="paint10_linear_164_164" x1="1973.91" y1="178.932" x2="-83.6352" y2="178.932" gradientUnits="userSpaceOnUse">
<stop stop-color="#752386"/>
<stop offset="1" stop-color="#00C8CF"/>
</linearGradient>
<linearGradient id="paint11_linear_164_164" x1="1972.78" y1="176.296" x2="-87.9915" y2="176.296" gradientUnits="userSpaceOnUse">
<stop stop-color="#80278F"/>
<stop offset="1" stop-color="#00C2D3"/>
</linearGradient>
<linearGradient id="paint12_linear_164_164" x1="1971.66" y1="173.894" x2="-92.3221" y2="173.894" gradientUnits="userSpaceOnUse">
<stop stop-color="#8A2A98"/>
<stop offset="1" stop-color="#00BDD6"/>
</linearGradient>
<linearGradient id="paint13_linear_164_164" x1="1970.53" y1="172.567" x2="-96.6742" y2="172.567" gradientUnits="userSpaceOnUse">
<stop stop-color="#952DA2"/>
<stop offset="1" stop-color="#00B8DA"/>
</linearGradient>
<linearGradient id="paint14_linear_164_164" x1="1969.41" y1="173.024" x2="-101.026" y2="173.024" gradientUnits="userSpaceOnUse">
<stop stop-color="#9F30AB"/>
<stop offset="1" stop-color="#00B3DD"/>
</linearGradient>
<linearGradient id="paint15_linear_164_164" x1="1968.28" y1="173.472" x2="-105.378" y2="173.472" gradientUnits="userSpaceOnUse">
<stop stop-color="#AA33B4"/>
<stop offset="1" stop-color="#00AEE1"/>
</linearGradient>
<linearGradient id="paint16_linear_164_164" x1="1967.16" y1="173.86" x2="-109.726" y2="173.86" gradientUnits="userSpaceOnUse">
<stop stop-color="#B537BE"/>
<stop offset="1" stop-color="#00A9E5"/>
</linearGradient>
<linearGradient id="paint17_linear_164_164" x1="1966.03" y1="174.816" x2="-114.078" y2="174.816" gradientUnits="userSpaceOnUse">
<stop stop-color="#BF3AC7"/>
<stop offset="1" stop-color="#00A4E8"/>
</linearGradient>
<linearGradient id="paint18_linear_164_164" x1="1964.91" y1="176.189" x2="-118.425" y2="176.189" gradientUnits="userSpaceOnUse">
<stop stop-color="#CA3DD0"/>
<stop offset="1" stop-color="#009FEC"/>
</linearGradient>
<linearGradient id="paint19_linear_164_164" x1="1963.78" y1="177.874" x2="-122.773" y2="177.874" gradientUnits="userSpaceOnUse">
<stop stop-color="#D440DA"/>
<stop offset="1" stop-color="#009AEF"/>
</linearGradient>
<linearGradient id="paint20_linear_164_164" x1="1962.66" y1="179.79" x2="-127.142" y2="179.79" gradientUnits="userSpaceOnUse">
<stop stop-color="#DF43E3"/>
<stop offset="1" stop-color="#0095F3"/>
</linearGradient>
<linearGradient id="paint21_linear_164_164" x1="1961.54" y1="181.859" x2="-131.49" y2="181.859" gradientUnits="userSpaceOnUse">
<stop stop-color="#EA47EC"/>
<stop offset="1" stop-color="#0090F7"/>
</linearGradient>
<linearGradient id="paint22_linear_164_164" x1="1960.42" y1="184.005" x2="-135.859" y2="184.005" gradientUnits="userSpaceOnUse">
<stop stop-color="#F44AF6"/>
<stop offset="1" stop-color="#008BFA"/>
</linearGradient>
<linearGradient id="paint23_linear_164_164" x1="1959.3" y1="186.198" x2="-140.224" y2="186.198" gradientUnits="userSpaceOnUse">
<stop stop-color="#FF4DFF"/>
<stop offset="1" stop-color="#0086FE"/>
</linearGradient>
<clipPath id="clip0_164_164">
<rect width="1920" height="463.141" fill="white"/>
</clipPath>
</defs>
</svg>
